<svg viewBox="0 0 240 166" xmlns="http://www.w3.org/2000/svg"><g clip-path="url(#a)"><path d="M115.69 24.146c-19.944.056-21.832-.588-34.864 8.734-13.44 9.66-9.816 13.524-42.88 20.447C13.682 58.407 6.618 83.015 6.01 92.434l208 5.337c-49.112-40.669-43.768-73.778-98.32-73.625z" fill="url(#b)"/><path d="M81.688 63.993H59.416v28.892h22.272V63.993z" fill="url(#c)"/><path d="M67.52 63.993h-8.104v28.73h8.104v-28.73z" fill="url(#d)"/><path d="M59.416 80.882H34.472v12.333h24.944V80.882z" fill="url(#e)"/><path d="M6.92 99.26s55.136 38.487 108.52 37.578c13.6.724 55.2-7.084 115.51-32.571-58.328-18.209-188.41-10.408-188.8-10.924L6.918 99.26z" fill="url(#f)"/><path d="m17.536 100.67 26.072-4.91L40.8 93.15c.432 0 29.864-.475 38.216-.716.8 0-9.016.692-9.8.893 0 0-42.88 9.837-44.256 10.006a33.229 33.229 0 0 1-6.536-.28L6.248 101.82l11.288-1.15z" fill="url(#g)" opacity=".99"/><path d="M16.504 92.281c-.144.419 1.776.282 2.872-.346a5.204 5.204 0 0 1 5.504.628c.386.452.824.858 1.304 1.207a1.1 1.1 0 0 0 1.544-.298c.112 1.12.632 1.433 1.6 1.61 1.486.144 2.98.2 4.472.17a14.374 14.374 0 0 1-1.8-.926c-11.792-6.947-15.688-1.562-15.496-2.045z" fill="url(#h)"/><path d="M20.656 81.405s24.392 2.415 24.52 2.31c.128-.104-12.944-2.825-12.944-2.825l-22.088.443 10.512.072z" fill="url(#i)"/><path d="M18.176 97.401c2 .274 4.872-1.103 5.064-2.817a1.277 1.277 0 0 1 .2-.717c.184-.176.41-.3.656-.362-.328.113 2.72-.998 9.856-1.739 3.688-.386 7.512-.918 11.048.056.72.193 2.352 2.286 2.912 2.705 1.08.805-.104 2.536-2.528 2.101-.264 1.208.696 1.61-.576 1.433.504-.185-.584.805-.048.894-1.944.225-16.16 3.155-19.24 3.276-2.04.072-11.904-.54-12.184-.556-.352.105-2.576-.233-2.4-2.1" fill="url(#j)"/><path d="M22.48 82.854s-.56 16.325-.616 17.09-1.12.556-1.12.556c.088.418-12.208-.5-13.112-.588-.416 0-.912-.049-1.32-.129a1.077 1.077 0 0 1-.888-.805l-.248-1.69c-.68-5.265.72-10.724 1.016-12.342a6.51 6.51 0 0 1 1.904-3.066c.552-.709 14.088-1.61 17.816-.13.488.21-3.232 1.152-3.432 1.104z" fill="url(#k)"/><path d="M44.528 94.052c-.976 0-1.792.87-1.792 2.262 0 1.393.8 2.52 1.768 2.52s1.768-1.127 1.768-2.52-.768-2.262-1.744-2.262z" fill="url(#l)"/><path d="M19.664 82.258c1.6-1.425 11.272-.805 11.272-.805l2.056-.564 9.52 1.498.992.805 4.232.354c.544 0 .944.258 1 .54 0 0 1.368 1.207 1.328 7.751v3.671c.048.467-.616.95-.616.95l-2.568.692h-.2s.048-2.197 0-2.873-1.944-.532-2.04-.298a22.897 22.897 0 0 0-.512 3.485L31.28 99.517v-2.874c.015-.23-.06-.455-.21-.629s-.362-.28-.59-.297a11.14 11.14 0 0 0-1.464 0c-.584 0-.656.741-.656.741l-.56 3.47c.056 0-4.68.547-5.296.667a11.93 11.93 0 0 1-2.888.081s.192-17.098.048-18.418z" fill="#F06B6C"/><path d="M45.928 96.457c.043-.692-.233-1.273-.617-1.297-.383-.024-.73.517-.772 1.21-.043.692.233 1.272.616 1.297.384.024.73-.518.773-1.21z" fill="url(#m)"/><path d="M45.664 96.44c.032-.47-.192-.869-.5-.89-.31-.021-.586.343-.617.813-.032.47.192.869.5.89.309.021.585-.343.617-.813z" fill="url(#n)"/><path d="M45.232 96.378c0 .395-.208.692-.424.692h-.072a1.036 1.036 0 0 1-.192-.7c.005-.25.099-.49.264-.676a.135.135 0 0 1 .08 0c.2.008.36.298.344.684z" fill="#425685"/><path d="M27.8 99.912s.488-3.019.616-3.598a.71.71 0 0 1 .576-.532 4.35 4.35 0 0 1 1.824.073c.552.177.488.926.488.926v2.696h.192v-3.84c0-1.03-1.6-.966-2.496-.925-.896.04-1 1.054-1 1.054l-.464 4.17.264-.024z" fill="url(#o)" opacity=".57"/><path d="M44.184 97.425s.36-2.318.456-2.817c.04-.226.352-.306.352-.306a3.1 3.1 0 0 1 1.384.064.634.634 0 0 1 .36.66v2.077h.2v-3.1c0-.893-1.272-.804-1.952-.804s-.8.934-.8.934l-.304 3.276.304.016z" fill="url(#p)" opacity=".57"/><path d="M30.434 98.812c.09-.956-.25-1.77-.76-1.82-.51-.048-.998.688-1.088 1.644-.09.956.25 1.77.76 1.819s.998-.687 1.088-1.643z" fill="url(#q)"/><path d="M30.618 98.81c.067-.713-.214-1.322-.628-1.361-.413-.04-.803.506-.87 1.219-.066.712.215 1.322.628 1.361.414.04.803-.506.87-1.219z" fill="url(#r)"/><path d="M23.04 81.582h-5.76v19.288h5.76V81.582z" fill="url(#s)" opacity=".13"/><path d="M19.808 82.564c.8-.54 4.544-.668 4.544-.668l23.88 2.214a25.08 25.08 0 0 1 .912 4.427 3.469 3.469 0 0 1-.48 1.884c-.352-1.176-1.416-1.176-2.4-1.176L27 89.141a4.783 4.783 0 0 0-2.928 1.119l-4.424 3.703" fill="url(#t)"/><path d="m7.28 95.879 8.752.443 3.2-1.176c-.032 2.222-2.512 1.844-3.392 1.844s-.352-.258-.352-.258L7.68 96.29a1.077 1.077 0 0 1-.576.217 12.248 12.248 0 0 1-1.712-.322c-.632-.177-.28-1.151-.28-1.151l2.168.845z" fill="url(#u)"/><path d="M6.624 83.53c.624-1.457 1.464-1.61 1.464-1.61 2.728-.17 10.584-.17 11.768 0 .888.306.72.684.696.684l-.904 11.391s-.248-.112-1.848.266c-.896.193-.992.54-1.776 1.014-4-.201-8.744-.346-8.744-.346a11.102 11.102 0 0 0-2.288-1.385c.176-4.604.872-8.186 1.632-10.014z" fill="url(#v)"/><path d="M6.44 84.11H4.376a7.799 7.799 0 0 0-.8 3.019c-.888 0-1.08-.258-1.08-.258a5.823 5.823 0 0 1 .192-2.568c.424-1.175 2.528-.95 2.528-.95h1.528l-.304.757z" fill="#F06B6C"/><path d="M4.568 83.708a2.808 2.808 0 0 0-.928.435h.496s-.704.58-.664 3.018c-.8-.04-1.008-.257-1.008-.257a5.822 5.822 0 0 1 .192-2.568c.424-1.175 2.528-.95 2.528-.95h1.56l-.088.225-2.088.097z" fill="url(#w)"/><path d="M8.096 81.88a31.373 31.373 0 0 0-.96 10.014l1.448.169-.12 1.2 4.976.209.144-1.272 5.12.153.064-.515 1.096-9.942-11.768-.016z" fill="url(#x)"/><path d="M18.464 96.314a3.374 3.374 0 0 1-2.32.386c-.64 0-.144-.33-.112-.394s.2-.87.2-.87l2.936-.805c.216.75.032 1.12-.704 1.683z" fill="url(#y)"/><path d="M5.152 95.549c.096.515 1.184.74 1.6.652.416-.088.496-.33.496-.33-.104-.378-.464-.555-.8-.805-.406-.28-.83-.53-1.272-.749-.073.407-.08.823-.024 1.232z" fill="url(#z)"/><path d="M18.864 93.963h-2.52a4.821 4.821 0 0 0 1.6-1.876 35.449 35.449 0 0 0 1.288-4.427l-.368 6.303z" fill="url(#A)"/><path d="M50.088 95.452a.963.963 0 0 1-.616.95l-2.568.692" fill="#F06B6C"/><path d="M16.536 99.526c-.23.096-.472.156-.72.177l-8.352-.402a3.473 3.473 0 0 1-1.024-.33l10.096.555z" fill="url(#B)"/><path d="m8.8 98.97 4.376.266a.16.16 0 0 0 .176-.145V98.6a.17.17 0 0 0-.16-.153l-4.392-.25a.16.16 0 0 0-.176.145v.483a.162.162 0 0 0 .113.14c.02.005.042.007.063.005z" fill="#A1A7C2"/><path d="M6.4 84.11c0 .056.696 1.272.696 1.272s-.112 1.095-.136 1.312c.133.245.312.461.528.636a.447.447 0 0 0 .6 0 13.026 13.026 0 0 0-.6-1.336l.736-.403a12.08 12.08 0 0 0-1.512-2.238l-.312.757z" fill="url(#C)"/><path d="M8.096 81.88c3.632-.298 11.768 0 11.768 0l-.184 1.683c-3.36-.42-11.928-.258-11.928-.258l.344-1.425z" fill="#717FA2"/><path d="M19.016 84.11s-.8 3.526-.08 3.268.744-2.503.76-2.729.416-.16.712-.257.272-.604.272-.604a8.237 8.237 0 0 0-1.664.322z" fill="#F06B6C"/><path d="M20.152 83.925c-.6 0-.656.555-.672.99-.024.72-.113 1.437-.264 2.141-.192.62-1.424.653-1.424.653.015-1.227.114-2.45.296-3.663.232-.958 2.592-.226 2.592-.226s.192.113-.528.105z" fill="url(#D)"/><path d="M5.752 89.56c.496-6.488 2.32-7.527 2.32-7.527-2.008.507-2.32 7.527-2.32 7.527z" fill="url(#E)"/><path d="M194.07 57.022h-12.496v34.752h12.496V57.022z" fill="#DEEBF9"/><path d="M174.18 32.791h-3.536v50.2h3.536v-50.2z" fill="url(#F)"/><path d="M185.19 32.018h-14.544v59.747h14.544V32.018z" fill="url(#G)"/><path d="M172.7 32.002h-3.312v59.86h3.312v-59.86z" fill="#FCE2E6"/><path d="M158.07 52.49h-11.736v39.429h11.736V52.49z" fill="url(#H)"/><path d="M151.07 52.49h-4.736v39.212h4.736V52.49z" fill="url(#I)"/><path d="M169.31 62.367h-11.072v29.181h11.072V62.367z" fill="url(#J)"/><path d="m169.31 62.367-1.704-3.727h-7.792l-1.568 3.727h11.064z" fill="url(#K)"/><path d="M158.25 62.367h2.976l1.32-3.735-2.728.008-1.568 3.727z" fill="#F9D8D8"/><path d="M163.58 55.009c-1.552.137-2.776 1.699-2.848 3.639h6.128c-.072-1.916-1.272-3.462-2.792-3.63" fill="#FDB5B5"/><path d="M185.04 60.435s9.688 31.395 10.624 30.34l-10.472.998-.152-31.339z" fill="#BDD8F2"/><path d="m159.66 82.886-4.728.612s-.696-.065-1.416 2.825c-.8 3.494.72 8.646.72 8.646s.8 1.417 1.704.99c.904-.426 2.104-1.11 2.104-1.11" fill="url(#L)"/><path d="M175.47 98.922a1.252 1.252 0 0 0-.056-.217v.209l.056.008z" fill="#F48F90"/><path d="M232 100.52a16.588 16.588 0 0 1-.744 1.682s-6.928.942-19.464-.177l-1.032.089s.376.588-1.96.507c-2.336-.08-7.872-.676-7.872-.676l-.552-1.256s-.472 1.256-2.36 1.175c-1.888-.08-1.6-1.264-1.6-1.264l-40.52-4.62-.416-1.884L208 98.66l1.968 1.932s21.376.765 22.032-.072z" fill="url(#M)"/><path d="M215.63 80.278a93.144 93.144 0 0 0-11.2-1.16c-4.12 0-33.52 3.301-33.52 3.301s-.56-.595-2.808-.426l-9.824.756s-1.688.757-1.784 1.61a4.958 4.958 0 0 0-1.416 2.858c-.088 1.61-.088 6.633.472 6.971s52.448 4.516 52.448 4.516l1.96 1.933s16.096 1.094 21.6.587c0 0 7.888-.692 5.424-4.62-2.168-3.64-8.304-11.239-21.352-16.326z" fill="url(#N)"/><path d="M210.57 84.03c-7.808-4.162-16.72-3.502-16.72-3.502l-37.736 4.243a4.444 4.444 0 0 0-1.024 2.415c-.096 1.61-.096 6.633.472 6.97s52.496 4.533 52.496 4.533l1.968 1.933s10.808.732 17.752.724c3.88-1.248 3.392-3.639 3.392-3.639.032-3.518-12.816-9.507-20.6-13.677z" fill="#F06B6C"/><path d="m209.15 87.185-2.904 4.122a24.46 24.46 0 0 0-6.272-.91c-4.256-.201-9.008-.298-9.008-.298l.224-4.71s11.96-.86 17.96 1.796zm-25.152-1.352-27.304 1.352-.104 2.608 27.016.21.392-4.17z" fill="url(#O)"/><path d="m186.59 85.631-.224 4.363h1.736l.168-4.411-1.68.048z" fill="url(#P)"/><path d="m155.06 90.647 41.6.861-.168 1.457-41.4-1.344-.032-.974zm82.304 6.44s-9.312.805-14.008-.12c-4.696-.926-15.272-3.768-19.808-4.525v1.506l17.6 3.912c4.976 1.135 9.848.507 12.144.555a22.544 22.544 0 0 0 4.288-.338l-.216-.99z" fill="#EF4849"/><path d="M233.02 94.366c.112.153.84 1.457.84 1.457l1.68-.048-.736-1.417-1.784.008z" fill="url(#Q)"/><path d="M223.7 84.19c-1.704-.765-3.328-1.465-3.776-1.61-.944-.354-6.096.153-6.096.153 0 .153-.728.25-.224.604s7.352 4.773 7.352 4.773a5.353 5.353 0 0 1 3.2.194c1.296.668 3.856 2.262 6.096 2.165 1-.048 1.336-.193 1.416-.338a44.82 44.82 0 0 0-7.968-5.941z" fill="#F6B2B3"/><path d="M171.02 82.178s0 .74-.408.74-6.616.733-6.616.733-1.096-1.11 0-1.352a20.188 20.188 0 0 1 7.024-.121z" fill="url(#R)"/><path d="M221.67 88.489c-.272.056 5.088 3.566 5.088 3.566l1.24-.942-3.472-2.254a3.977 3.977 0 0 0-2.856-.37z" fill="url(#S)"/><path d="M211.8 81.47s9.6 5.7 14.312 6.537c1.776.322 2.704.241 3.016-.073a50.942 50.942 0 0 0-13.496-7.655s-4.96-.757-3.832 1.191z" fill="url(#T)"/><path d="M107.14 91.299s95.36 11.986 108.15 13.322c12.792 1.337 25.92-.531 4.8-2.133s-112-13.081-112-13.081l-.952 1.892z" fill="url(#U)" opacity=".99"/><path d="m155.7 83.361-47.296 5.023c-.3.083-.561.272-.734.532-.173.26-.248.574-.21.885 0 .427-.264.805-.112 1.143l46.88 3.969s-1.064-5.539-.152-9.024c.256-.974 1.016-1.441 1.624-2.528z" fill="url(#V)"/><path d="m154.14 94.028.168 1.119-46.96-4.226-.104-.395 46.896 3.502z" fill="url(#W)"/><path d="m152.43 87.282-.128 2.15-44.504.112.304-.499 44.328-1.763z" fill="url(#X)" opacity=".76"/><path d="m189.17 95.903-3.52-.193a.224.224 0 0 1-.2-.161 68.03 68.03 0 0 1 0-10.135c.172-1.04.492-2.048.952-2.995.097-.207.183-.42.256-.636a.167.167 0 0 1 0-.088c0-.202 0-.21 4-.507a.206.206 0 0 1 .2.088.172.172 0 0 1 0 .21 8.074 8.074 0 0 0-1.36 3.767c-.416 2.656-.112 10.36-.104 10.465a.162.162 0 0 1-.072.137c-.021.018-.045.031-.071.04s-.054.01-.081.008zm-3.344-.555 3.128.177c-.048-1.272-.288-7.8.12-10.328a9.884 9.884 0 0 1 1.2-3.623c-1.184.089-2.728.226-3.2.282-.08.233-.174.462-.28.684-.449.92-.767 1.898-.944 2.906a69.047 69.047 0 0 0-.024 9.934v-.032z" fill="url(#Y)"/><path d="M110.26 161.04a1.74 1.74 0 0 1 .408 0h.048a2.892 2.892 0 0 0-.456 0z" fill="url(#Z)"/><path d="M134.85 131.84s-6.456 13.895-11.744 29.206l-9.16 1.956c-14.712-11.141-14.968-27.652-25.808-31.041 14.36 3.518 46.712-.121 46.712-.121z" fill="url(#aa)"/><path d="m140.47 131.81 4.224.403s-4.696 6.134-22.76 9.048c-8.304 1.344-10.456 2.657-21.24-3.156-2.736-1.465-10.128-5.884-15.368-6.842a4.386 4.386 0 0 1-2.2-1.24c17.04 1.739 34.128 1.538 57.32 2.069.018.002.037 0 .054-.006a.142.142 0 0 0 .048-.027.133.133 0 0 0 .05-.096.148.148 0 0 0-.006-.055.152.152 0 0 0-.027-.048.126.126 0 0 0-.042-.034.147.147 0 0 0-.053-.016z" fill="url(#ab)"/><path d="M81 91.468a30.06 30.06 0 0 0-6.256-1.666c-1.064.056-2.48-.805-4.176.2-1.064.556-.8 1.015-1.312 1.796-.8 1.264-1.672 2.125-1.672 4.323-.432.982 1.6 4.137 2.656 5.86s1.744.201 3.368 2.07c.936 1.086 5.216 4.024 5.216 4.024l-.352 5.82 3.44 4.395.072-23.345L81 91.468z" fill="url(#ac)"/><path d="M78.4 128.51c-2.28-1.465-4.104-8.614-5.344-9.66-2.48-.934-2.912-3.51-3.112-5.378-.304-2.729.408-4.572 3.2-5.586.912-.475 2.232-.604 3.824-1.111s4.328 1.843 4.68 5.055.104 15.295.104 15.295-.8 3.059 3.544 4.098c4 .982 7.016 4.669 13.544 8.356.384 2.197 4.28 13.749 10.584 21.404-1.088-.805-9.896-13.322-13.016-19.078-1.488-2.753-2.4-6.319-3.464-7.575-.2-1.264-6.232-2.479-10.584-3.92a18.454 18.454 0 0 1-3.96-1.9z" fill="url(#ad)"/><path d="M79.76 91.017s4.2 3.22-.8 8.388c-3.112 3.22-6.992.886-4.56 2.174l3.2 5.176a5.826 5.826 0 0 1 2.577 1.96 5.883 5.883 0 0 1 1.143 3.04c.304 2.414.584 6.085.584 6.085v-1.087l.128-19.368c-.014-1.15-.1-2.298-.256-3.437-.52-2.327-.176-2.858-2.016-2.93z" fill="#FA6B6B"/><path d="M76.952 107a3.312 3.312 0 0 0-.895 4.136c.237.454.576.846.991 1.145.688 1.61-2.832.934-3.416 1.111s-.8-.048-1.192-1.006a3.41 3.41 0 0 1 .688-3.518A16.355 16.355 0 0 1 76.952 107z" fill="#F7B3B4"/><path d="M77.6 106.73c.256.12 5.216 1.384 2.584 7.703 0 0-1.192 1.892-6.936 2.198 1.088 1.111 2.328 4.83 3.264 6.134 1.416 1.948 2.504 2.302 4.632 1.312-.656.765-2.152 1.393-1.416 2.681.528.958 1.768 1.61 2.456 2.415-.864-1.159-.256-3.059-.232-4.524v-9.773c0-1.441.128-4.83-.408-6.134-.272-.636-.576-.258-.88-.861-.08-.934-2.992-1.57-3.04-1.135" fill="#EF4849"/><path d="M70.648 96.274c-1.088.378 1.24 3.107 2.808 1.409-.984.233-2.656-.733-2.808-1.409z" fill="url(#ae)" opacity=".39"/><path d="M73.08 98.6c.936-.225 1.36-1.16 1.64-2.045 1.264-4.025 5.872-2.415 6.056-1.03s-.664 2.6-1.472 3.558c-.69.905-1.645 1.568-2.731 1.895s-2.247.3-3.317-.076a5.456 5.456 0 0 1-1.997-1.115 5.506 5.506 0 0 1-1.371-1.839c.483.69 1.151 1.226 1.926 1.548s1.624.416 2.45.271c-.856.475-2.552-.805-2.96-1.545a2.343 2.343 0 0 0 1.952.281" fill="#FB8989"/><path d="M79.888 91.798a5.036 5.036 0 0 0-2.724.466 5.074 5.074 0 0 0-2.076 1.836c-1.272 1.94-.336 4.025-1.12 4.219s-2.552-1.063-2.552-1.063-1.648-5.86 4.072-6.166c1.36-.226 4.4.708 4.4.708z" fill="#FBD9D9"/><path d="M70.824 116.93s4.8-2.117 5.8-1.538c1 .58 5.36 1.892 5.288 2.906-.536 6.513.48 11.117 2.4 10.86 1.144.684.128 2.02 2.456 2.503.056 0 .208.25.8 2.931.592 2.68 1.768 5.932 1.768 5.932l4.128 20.544-9.832-27.048a46.586 46.586 0 0 0-4.584-4.452c-1.944-1.513-3.008-4.17-3.72-5.28a24.035 24.035 0 0 0-4.504-7.326" fill="#FA6B6B"/><path d="M77.6 106.73c-.8 1.562.632 5.024-.912 6.537-1.264 1.24-3.592 3.083-5.216 3.389.456.33 2.2 0 1.344 0 3.064 0 5.696-.66 6.984-1.795 2.912-2.552.888-7.478-2.2-8.106" fill="url(#af)"/><path d="m89.104 132.29 2 .805a75.433 75.433 0 0 0-3.928-1.32l1.928.515z" fill="url(#ag)"/><path d="M86.824 138.53c-.656-2.415-.8-5.804-1.216-8.235 3.264 1.497 8.76 3.22 16.048 10.586 4.128 4.17 7.648 16.752 12.36 20.125l3.584 1.996H95.584c-2.68-5.41-7.168-18.612-8.76-24.472z" fill="url(#ah)"/><path d="M81.48 68.662a13.534 13.534 0 0 0-5.896-1.457c-2.504-.08-2.232-.08-2.864.153-.632.233-3.264 3.687-3.264 6.617 0 1.183-.104 1.44.656 2.375s4.232 4.516 6.456 5.78c3.344 1.9 2.48 2.222 2.48 2.222l2.208 8.315.528 1.288-.28-14.297s3.976-4.532-.024-10.996z" fill="url(#ai)"/><path d="M72.672 70.779c-1.168 2.656-1.672 5.563.432 7.961a10.626 10.626 0 0 0 6.176 3.22 4.406 4.406 0 0 1-2.688.153c2.864 1.723 4.28-.628 5.344-3.002 4.912-11.101-6.352-11.906-9.264-8.332z" fill="url(#aj)"/><path d="M136.6 132.87H90.824a9.654 9.654 0 0 1-3.717-.728 9.703 9.703 0 0 1-3.157-2.104c-.904-.903-1.624-1.976-2.116-3.159s-.749-2.451-.754-3.734V11.725c.013-2.59 1.046-5.067 2.873-6.89S88.25 1.991 90.824 2H136.6c2.573-.009 5.044 1.01 6.871 2.833s2.86 4.302 2.873 6.891v111.44a9.795 9.795 0 0 1-2.879 6.877 9.675 9.675 0 0 1-6.865 2.823z" fill="#242F65"/><path d="M136.45 5.816h-6.792v1.263a3.004 3.004 0 0 1-.88 2.11c-.56.559-1.316.871-2.104.869h-25.928c-.788.002-1.544-.31-2.104-.869s-.876-1.317-.88-2.11V5.816h-6.864a5.662 5.662 0 0 0-4.016 1.657 5.733 5.733 0 0 0-1.68 4.026v111.73a5.732 5.732 0 0 0 1.68 4.026 5.657 5.657 0 0 0 4.016 1.657h45.52a5.654 5.654 0 0 0 4.015-1.657 5.73 5.73 0 0 0 1.681-4.026V11.499a5.693 5.693 0 0 0-1.66-4.024 5.646 5.646 0 0 0-4.004-1.66z" fill="url(#ak)"/><path d="M120.74 7.506c.336 0 .608-.27.608-.604 0-.333-.272-.603-.608-.603s-.608.27-.608.603c0 .334.272.604.608.604z" fill="url(#al)"/><path d="M81.456 19.404h-.736v5.152h.736v-5.152z" fill="url(#am)"/><path d="M81.456 28.823h-.736v9.475h.736v-9.475z" fill="url(#an)"/><path d="M81.456 40.874h-.736v9.475h.736v-9.475z" fill="url(#ao)"/><path d="M146.34 31.962h-.376v15.231h.376V31.962z" fill="url(#ap)"/><path d="M136.85 132.02H90.626a9.005 9.005 0 0 1-6.367-2.651 9.116 9.116 0 0 1-2.657-6.398V11.081c.004-2.406.957-4.712 2.648-6.413s3.985-2.657 6.376-2.66h46.224a9.001 9.001 0 0 1 6.39 2.634c1.7 1.695 2.661 4 2.674 6.407v111.89a9.148 9.148 0 0 1-2.669 6.423 9.036 9.036 0 0 1-6.395 2.658zM90.626 2.63a8.405 8.405 0 0 0-5.964 2.462 8.511 8.511 0 0 0-2.492 5.982v111.89a8.51 8.51 0 0 0 2.495 5.977 8.405 8.405 0 0 0 5.961 2.46h46.224a8.415 8.415 0 0 0 5.959-2.462 8.522 8.522 0 0 0 2.497-5.975V11.074c-.013-2.246-.91-4.397-2.495-5.98s-3.728-2.468-5.961-2.464H90.626z" fill="url(#aq)"/><path d="M88.624 129.79h50.128s-2.152 1.006-26.864 1.006c-20.024-.048-23.264-1.006-23.264-1.006z" fill="url(#ar)" opacity=".42"/><path d="M116.14 163c-5.088-6.376 5.864-19.714 10.568-26.444 2.968-4.275 13.904-16.181 17.864-19.65a38.696 38.696 0 0 1 3.04-2.456c.6-.426.528-.394.528-.394 0-2.174-.064-5.683 0-8.565 0-2.415-.056-4.83-.104-7.245-.048-2.415.176-6.601.176-6.601-3.456-6.706-3.872-8.912-4.464-12.816-.472-3.148.2-10.062 4.8-10.24 2.064.394 2.752 2.173 3.304 3.896a34.086 34.086 0 0 0 3.2 7.245 47.289 47.289 0 0 0 3.632 4.999c1.056 1.312 2.664 2.882 3.2 4.46 1.544 4.508.864 9.25 1.352 13.862.472 4.387 1.6 8.702 2.192 13.105.512 4.025.456 8.324-1.416 12.075a22.832 22.832 0 0 1-1.864 3.059 13.32 13.32 0 0 0-1.288 2.866c-.8 2.02-1.6 4.025-2.464 6.005-1.144 2.713-9.024 20.125-10.136 22.878h-32.12v-.04z" fill="url(#as)"/><path d="m154.4 77.968-3.376.676s-.64.725-1.36-.62c-.72-1.344-1.664-8.468-1.664-8.468s1.84-1.312 3.072-.54c.536 2.794 3.24 8.855 3.328 8.952z" fill="#FBD9D9"/><path d="M154.4 77.968c.408 1.006 1.72 3.566 2.624 4.226 1.912 1.36 3.312 4.428 3.312 4.428s-5.6-2.616-7.872-4.476c-2.272-1.86-1.864-3.365-1.864-3.365l3.8-.813z" fill="#F7B3B4"/><path d="M146.92 68.928s-1.32 4.283 0 7.559 10.4 12.494 10.928 14.884c.528 2.39-2.696 15.11 3.68 22.081 0 0 5.152 9.387 4.36 9.048-13.72-6.005-17.768-8.468-17.768-8.468L148 96.515l.192-4.902s-9.432-16.648-1.272-22.686z" fill="url(#at)"/><path d="M161.18 94.913a2.431 2.431 0 0 0-.176-1.61c-.288-.37-1.072-.378-1.536-.588a7.817 7.817 0 0 1 2.4.258c-.31-.508-.731-.937-1.232-1.256s-1.067-.516-1.656-.58c-.968-.128-2.792-.176-3.472-.941 1.184-.08 2.4-.113 3.56-.25a3.619 3.619 0 0 1 2.264.089c-.328-.676-.496-1.425-.8-2.077-.304-.652-.6-1.723-1.176-2.166l.432-.088a28.275 28.275 0 0 1 2.4 3.445c1.944 5.33.328 11.697 2.096 18.016.128 1.811.68 4.347 1.136 6.963l-.072.153c-.16-.346-.248-.724-.384-1.102a70.485 70.485 0 0 1-2.488-7.51 45.003 45.003 0 0 1-.976-5.837 28.407 28.407 0 0 1-.32-4.919z" fill="#FEDADA" opacity=".25"/><path d="M148.2 108.26c-.984 3.84 10.104 8.283 13.008 11.359.256.217.256.193 0 0-2.968 0-9.68-1.779-12.168-3.124 1.424 2.158 3.2 4.637 12.44 8.348-10.008 4.46-23.672 29.302-23.88 38.157h-25.536c-4.272-7.865 17.656-32.715 25.256-38.817 6.072-6.633 7.096-7.044 10.736-10.127.32-.266.12-4.677.144-5.788" fill="url(#au)"/><g opacity=".85"><path d="M49.256 28.951 73.88 53.503l11.792-.427L49.256 28.95z" fill="url(#av)" opacity=".59"/><path d="M39.023 18.607c-.064 0-3.048-.547-3.8 1.208a1.612 1.612 0 0 0-.4 1.875c.4 1.328.632 1.755 1.496 2.359.864.604 4.656 2.841 4.656 2.841s.288.121-.288.604-3.088 1.997-3.088 1.997a3.247 3.247 0 0 0-2.592-.242c-1.208.548-1.264 1.328-1.152 1.82l-7.936 3.22 1.264.362 7.824-1.876c.158.198.354.363.576.483.373.083.754.129 1.136.137l.112-.12-.224-.122a.53.53 0 0 1-.288-.539 4.34 4.34 0 0 0 1.664-.12l1.208.297.056-.12-.048-.339-.456-.177.056-.362 1.32-.306c.357.236.745.42 1.152.547l.464.121v-.427l-.352-.297-.056-.306 4.544-.805 1.44.12-4.256 1.216.456.241 4.8-1.03a9.47 9.47 0 0 0 2.4.427 3.302 3.302 0 0 0 2.472-.805c.057-.266.097-.535.12-.805l8.912-2.6-.288-.306-8.872 2.173-1.056-.386 2.184-.805c.359.072.723.112 1.088.12l.576.298.408-.12-.12-.483s.464-.363.52-.54a9.021 9.021 0 0 1 1.6-.426 1.6 1.6 0 0 0 .92.668l-.112-.966 2.304-.612c.22.377.566.662.976.805l-.12-1.03 11.376-3.35-.288-.724-17.2 3.325a2.843 2.843 0 0 0-2.472-.805 1.715 1.715 0 0 1-.605.865 1.698 1.698 0 0 1-.995.342l-2.704.121-8.128-5.852c0 .12-1.264-.548-2.184-.789z" fill="#CDE2F5" opacity=".85"/><path d="M34.88 21.69c.4 1.272.632 1.755 1.496 2.359.864.603 4.656 2.841 4.656 2.841s.288.121-.288.604-3.104 1.996-3.104 1.996a3.247 3.247 0 0 0-2.592-.241c-1.208.547-1.264 1.328-1.144 1.82l-7.944 3.22 1.272.361 7.816-1.875c.158.198.354.363.576.483.386.086.78.131 1.176.137l.12-.121-.232-.12a.546.546 0 0 1-.288-.54 4.34 4.34 0 0 0 1.664-.12l1.208.297.064-.12-.064-.363-.456-.177.056-.362 1.32-.306c.357.235.744.42 1.152.547l.464.12v-.426l-.344-.298-.064-.306 4.544-.805 1.44.121-4.256 1.216.464.241 4.8-1.03a9.463 9.463 0 0 0 2.4.426 3.323 3.323 0 0 0 2.48-.805c.052-.266.09-.534.112-.805l8.912-2.6-.288-.306-8.896 2.198-1.032-.386 2.184-.805c.361.072.728.113 1.096.12l.568.298.408-.12-.12-.483s.464-.363.52-.54a9.019 9.019 0 0 1 1.6-.426c.22.326.55.563.928.668l-.12-.966 2.304-.612c.22.377.566.662.976.805l-.112-1.03 11.336-3.35-.232-.547L52.08 25.74l-5.24.548.12.241a.529.529 0 0 1-.576.242l-1.032-.363a.365.365 0 0 1-.255-.174.372.372 0 0 1-.033-.309s-8.8-5.144-9.208-5.32.12-.967.12-.967l-.696.121a1.781 1.781 0 0 0-.4 1.932z" fill="url(#aw)" opacity=".85"/><path d="M37.408 30.4a1.977 1.977 0 0 0-.92-1.207 2.6 2.6 0 0 0-1.496.177c-1.208.547-1.264 1.328-1.152 1.819.064.177.288 1.264 1.728.845 1.552-.547 2.128-.966 1.84-1.634z" fill="url(#ax)" opacity=".85"/><path d="m53.344 29.797-.232-.805-1.032-.346H52a2.4 2.4 0 0 0-1.272.91l2.48 1.143.056-.057c0-.185.056-.603.056-.805l.024-.04z" fill="url(#ay)" opacity=".85"/><path d="m35.512 19.396.8-.241 1.32-.186.288.483-2.72.363.312-.419zm2.4-.427c0 .121.232.427.232.427l.92.298-.232-.725h-.92zm1.152 0 .224.725.864-.12a2.78 2.78 0 0 0-1.128-.605h.04z" fill="url(#az)" opacity=".85"/><path d="m50.464 25.321-.056-2.48.576.484.4 1.932-.92.064z" fill="url(#aA)" opacity=".85"/><path d="M38.848 31.914a1.384 1.384 0 0 0-.176-1.393 4.622 4.622 0 0 0-.976-.966 3.368 3.368 0 0 0-2.648-.241c-1.208.54-1.264 1.328-1.144 1.811h-.064c.054.154.132.298.232.427 0 0 0 .604 1.496.901.576.121 1.096.185 1.552.306.333.027.667-.014.984-.12l1.208.297.056-.12-.056-.363-.464-.177v-.362z" fill="url(#aB)" opacity=".85"/><path d="M35.568 29.491c-.056 0-1.208.362-1.264 1.208-.056.845.464 1.15 1.728.611 1.264-.54.92-1.03.744-1.457a1.223 1.223 0 0 0-1.208-.362z" fill="url(#aC)" opacity=".85"/><path d="M25.848 34.329c0-.056.056-1.69.056-1.69l.408.12.512 1.208-.976.362z" fill="url(#aD)" opacity=".85"/><path d="M73.36 21.513c0-.064.464-2.117.464-2.117l.112.604-.232 2.173-.344-.66z" fill="url(#aE)" opacity=".85"/><path d="M55.872 26.15c.348.27.624.625.8 1.03A2.025 2.025 0 0 0 56.208 25l-.4.064c.146.344.169.728.064 1.087z" fill="url(#aF)" opacity=".85"/><path d="M53.688 24.049c-.417.08-.8.284-1.101.585-.3.302-.505.686-.587 1.105v.065c-.12 1.449 1.552 1.393 3.2.805 1.648-.588.672-2.802-1.512-2.56z" fill="url(#aG)" opacity=".85"/><path d="M53.744 24.29s-1.264.241-1.32 1.208.688 1.271 1.784 1.03c.744-.177 1.44-.483 1.376-1.087-.064-.604-.576-1.272-1.84-1.151z" fill="url(#aH)" opacity=".85"/></g><path d="M134.3 47a2.12 2.12 0 0 0-1.463.69 2.147 2.147 0 0 0-.561 1.524 2.114 2.114 0 0 0 .549 1.52 2.086 2.086 0 0 0 1.459.677l-.136 41.707a4.667 4.667 0 0 1-1.32 3.28 4.612 4.612 0 0 1-3.232 1.397l-32.272.105a4.519 4.519 0 0 1-3.214-1.396 4.576 4.576 0 0 1-1.274-3.281l.128-41.715a2.123 2.123 0 0 0 1.414-.71 2.15 2.15 0 0 0 .538-1.496 2.117 2.117 0 0 0-.525-1.493 2.091 2.091 0 0 0-1.411-.704V36.342a4.677 4.677 0 0 1 1.343-3.303 4.62 4.62 0 0 1 3.273-1.374l32.272-.105a4.536 4.536 0 0 1 3.217 1.4 4.6 4.6 0 0 1 1.279 3.285L134.3 47zm-17.672 2.262a.976.976 0 0 0 .257.734.957.957 0 0 0 1.397.004c.181-.187.282-.437.282-.698a.978.978 0 0 0-.586-.92.964.964 0 0 0-.374-.078.983.983 0 0 0-.976.958zm5.312.982a.985.985 0 0 0 .945-.59 1.006 1.006 0 0 0-.192-1.101.991.991 0 0 0-1.705.701.974.974 0 0 0 .582.912c.117.05.243.077.37.078zm-17.656-.942c0 .257.101.502.281.683a.957.957 0 0 0 1.639-.683.98.98 0 0 0-.27-.695.951.951 0 0 0-.682-.295.98.98 0 0 0-.685.296.995.995 0 0 0-.283.694zm5.072.999a.98.98 0 0 0 .683-.302.992.992 0 0 0 .277-.697.974.974 0 0 0-.267-.7.95.95 0 0 0-.685-.298.99.99 0 0 0-.689.304c-.181.188-.281.44-.279.702a.985.985 0 0 0 .275.697.97.97 0 0 0 .685.294zm-12.336 0a.98.98 0 0 0 .683-.302.994.994 0 0 0 .277-.697.98.98 0 0 0-.586-.92.965.965 0 0 0-.374-.078.982.982 0 0 0-.683.301.993.993 0 0 0-.277.697.98.98 0 0 0 .586.92c.119.05.246.078.374.079zm3.152-1.007a.992.992 0 0 0 .275.7.97.97 0 0 0 .685.299c.26-.007.506-.116.686-.305s.278-.44.274-.702a.978.978 0 0 0-.586-.92.964.964 0 0 0-.374-.078.982.982 0 0 0-.9.645.994.994 0 0 0-.06.385v-.024zm13.296 1.007c.26-.007.506-.116.686-.305s.278-.44.274-.702a.987.987 0 0 0-.27-.698.977.977 0 0 0-.682-.3.99.99 0 0 0-.69.304c-.18.188-.28.44-.278.702a.992.992 0 0 0 .275.7.97.97 0 0 0 .685.298zm12.584 0a.995.995 0 0 0 .958-.589 1.016 1.016 0 0 0-.188-1.113.994.994 0 0 0-1.553.138c-.112.167-.17.364-.17.565.01.249.116.484.293.658s.413.272.66.276v.065zm4.12 0a.98.98 0 0 0 .683-.302.992.992 0 0 0 .277-.697.978.978 0 0 0-.586-.92.964.964 0 0 0-.374-.078.982.982 0 0 0-.683.301.993.993 0 0 0-.277.697.973.973 0 0 0 .96.918v.08z" fill="url(#aI)" opacity=".37"/><path d="M132.98 48.513a2.155 2.155 0 0 1 .555-1.543 2.126 2.126 0 0 1 1.477-.695V35.52a4.612 4.612 0 0 0-1.273-3.284 4.533 4.533 0 0 0-3.215-1.401l-32.248.145c-1.218.027-2.376.537-3.222 1.42s-1.313 2.063-1.298 3.29v10.762a2.1 2.1 0 0 1 1.408.706c.361.41.55.945.528 1.492a2.165 2.165 0 0 1-.542 1.492 2.14 2.14 0 0 1-1.41.714l-.144 41.69a4.606 4.606 0 0 0 1.273 3.285 4.551 4.551 0 0 0 3.215 1.4l32.28-.104a4.61 4.61 0 0 0 3.222-1.42 4.666 4.666 0 0 0 1.298-3.29l.136-41.706a2.09 2.09 0 0 1-1.911-1.377 2.109 2.109 0 0 1-.129-.82zm-35.248-.893a.963.963 0 0 1 .887.621.98.98 0 0 1 .065.377.969.969 0 0 1-.281.683.957.957 0 0 1-1.358 0 .969.969 0 0 1-.281-.683c.002-.26.104-.51.284-.696a.998.998 0 0 1 .684-.303zm4.112 0a.966.966 0 0 1 .686.298.982.982 0 0 1 .274.7c0 .26-.101.51-.282.697s-.427.295-.686.3a.95.95 0 0 1-.685-.296.966.966 0 0 1-.267-.701c-.004-.262.094-.514.274-.702s.426-.298.686-.305v.008zm4.112 0a.966.966 0 0 1 .686.298.982.982 0 0 1 .274.7c.002.262-.098.514-.28.702a.99.99 0 0 1-.688.304.961.961 0 0 1-.683-.3.98.98 0 0 1-.27-.698.994.994 0 0 1 .582-.945.984.984 0 0 1 .379-.086v.024zm4.112 0a.965.965 0 0 1 .892.614c.047.12.07.247.068.376a.989.989 0 0 1-.968 1.006.961.961 0 0 1-.683-.3.979.979 0 0 1-.27-.698.994.994 0 0 1 .582-.945.982.982 0 0 1 .379-.086v.032zm4.112 0a.962.962 0 0 1 .894.62c.047.12.069.248.066.378a.991.991 0 0 1-.968.998.955.955 0 0 1-.682-.294.973.973 0 0 1-.27-.696.991.991 0 0 1 .96-1.055v.049zm4.112 0a.996.996 0 0 1 .952.592 1.01 1.01 0 0 1-.702 1.397.994.994 0 0 1-1.038-.42 1.008 1.008 0 0 1-.172-.563.995.995 0 0 1 .572-.982.978.978 0 0 1 .388-.089v.064zm4.368 0a.96.96 0 0 1 .952.99.97.97 0 0 1-.611.875.952.952 0 0 1-1.04-.228.97.97 0 0 1 .166-1.48.955.955 0 0 1 .533-.158zm4.112 0a.96.96 0 0 1 .952.998.993.993 0 0 1-.277.697.98.98 0 0 1-.683.3.967.967 0 0 1-.96-.99 1.015 1.015 0 0 1 .246-.76.994.994 0 0 1 .722-.334v.088zm4.112 0a.961.961 0 0 1 .683.299.98.98 0 0 1 .269.699.969.969 0 0 1-.281.683.957.957 0 0 1-1.358 0 .969.969 0 0 1-.281-.683 1.021 1.021 0 0 1 .246-.763 1.005 1.005 0 0 1 .722-.34v.105z" fill="#fff"/><path d="M110.77 63.019h-6.648v6.875h6.648v-6.875zm2.168-2.254v11.326H101.97V60.757l10.968.008z" fill="#242F65"/><path d="m109 64.846-.008 3.228-3.12.008.008-3.228 3.12-.008zM124.51 62.971h-6.648v6.867h6.648v-6.875.008zm2.168-2.206V72.1H115.71V60.773l10.968-.008z" fill="#242F65"/><path d="m122.74 64.798-.016 3.228-3.12.008.016-3.22 3.12-.016zM118.78 74.893l-.008 3.22-3.12.008.008-3.22 3.12-.008zM123.2 80.334h-2.192v2.254h2.192v-2.254zm2.168-2.238v6.722h-6.504v-6.722h6.504zM110.73 77.147h-6.648v6.867h6.648v-6.867zm2.168-2.238-.04 11.334H101.89V74.91h11.008z" fill="#242F65"/><path d="m108.96 78.974-.016 3.228-3.12.008.008-3.228 3.128-.008zM126.63 74.86l-.032 11.334-10.968.04v-2.173l8.8-.032.032-9.161 2.168-.008z" fill="#242F65"/><path d="m130.19 38.652.008-3.067-31.592.097-.008 3.075 31.592-.105z" fill="#EE474A"/><path d="m114.38 43.602.016-3.067-15.8.048-.008 3.067 15.792-.048z" fill="#9AB9DA"/><path d="M165.6 121.41a29.616 29.616 0 0 0-.24-5.257 68.731 68.731 0 0 0-.432-2.866c.102.347.222.688.36 1.023l.072-.153c-.456-2.617-1.008-5.152-1.136-6.964-1.768-6.319-.152-12.686-2.096-18.016a26.82 26.82 0 0 0-2.144-3.14 11.753 11.753 0 0 0-3.016-3.84c-.904-.66-2.216-3.22-2.624-4.226l-.28.065.28-.057c-.056-.096-2.76-6.158-3.32-8.951a1.996 1.996 0 0 0-1.6-.137 3.303 3.303 0 0 0-.912-.322c-.555.02-1.1.158-1.6.403a1.008 1.008 0 0 1-.104.088 5.936 5.936 0 0 0-1.699 1.612 5.984 5.984 0 0 0-.949 2.147 11.875 11.875 0 0 0-.56 3.84c.004.07.004.14 0 .21v.056c-.01.64.031 1.281.12 1.916.592 3.904 1.008 6.11 4.464 12.816 0 0-.216 4.025-.176 6.6v.886l.056 9.298v5.482a.31.31 0 0 1-.072.177c-.24.21-.472.395-.696.58a44.507 44.507 0 0 0-2.792 2.27c-.28.24-.592.53-.928.805-1.472 1.32-3.256 3.083-6.32 6.44a55.166 55.166 0 0 0-7.2 7.704c-17.352-.298-31.336-.395-45.136-1.691a1.624 1.624 0 0 0-.688-1.038c-1.16.153-1.992-1.522-2.336-4.34v-8.709l.12-18.724s0-.958-.08-1.868v-.563l-.048-.193a4.464 4.464 0 0 0-.128-.805v-.13l-.272-13.83c.152-.297.288-.595.424-.893 0-.056 0-.104.064-.153.928-1.48 2.568-5.289-.52-10.28a13.533 13.533 0 0 0-5.872-1.473c-2.504-.08-2.232-.08-2.864.153-.632.233-3.264 3.687-3.264 6.617 0 1.183-.104 1.441.656 2.375s4.232 4.516 6.456 5.78c3.344 1.9 2.48 2.222 2.48 2.222l1.84 6.923a2.69 2.69 0 0 0-1.128-.226 40.903 40.903 0 0 0-5.016-1.215c-1.064.056-2.48-.805-4.176.2-1.064.556-.8 1.015-1.312 1.796-.8 1.264-1.672 2.125-1.672 4.323-.432.982 1.6 4.138 2.656 5.86 1.056 1.723 1.744.201 3.368 2.07a26.81 26.81 0 0 0 3.432 2.744c-1.6.507-2.912.636-3.824 1.111-2.832 1.014-3.544 2.858-3.2 5.587.08 1.19.39 2.351.912 3.421l.072.09c.249.43.571.814.952 1.134a22.577 22.577 0 0 1 3.48 6.101c.712 1.111 1.776 3.768 3.72 5.281a46.564 46.564 0 0 1 4.584 4.452l5.008 13.926c2.656 8.155 2.984 11.617 4.704 15.086h57.232c1.112-2.737 6.64-20.165 7.784-22.878.8-1.988 1.664-4.025 2.464-6.005a13.297 13.297 0 0 1 1.288-2.866c.7-.969 1.324-1.992 1.864-3.059a16.065 16.065 0 0 0 1.6-5.828l.328.137c.072.064-.064-.379-.408-1.11z" fill="url(#aJ)"/></g><defs><linearGradient id="b" x1="55.432" x2="159.93" y1="142.18" y2="38.329" gradientUnits="userSpaceOnUse"><stop stop-color="#FDB5B5" stop-opacity="0" offset="0"/><stop stop-color="#FDB5B5" stop-opacity=".03" offset=".07"/><stop stop-color="#FDB5B5" stop-opacity=".12" offset=".19"/><stop stop-color="#FDB5B5" stop-opacity=".27" offset=".34"/><stop stop-color="#FDB5B5" stop-opacity=".48" offset=".51"/><stop stop-color="#FDB5B5" stop-opacity=".72" offset=".68"/></linearGradient><linearGradient id="c" x1="70.552" x2="70.552" y1="63.993" y2="92.885" gradientUnits="userSpaceOnUse"><stop stop-color="#BFD2E8" offset=".69"/><stop stop-color="#BFD2E8" offset=".81"/></linearGradient><linearGradient id="d" x1="63.472" x2="63.472" y1="63.993" y2="92.724" gradientUnits="userSpaceOnUse"><stop stop-color="#fff" offset="0"/><stop stop-color="#FCE2E6" offset=".41"/><stop stop-color="#FCE2E6" stop-opacity=".97" offset=".43"/><stop stop-color="#FCE2E6" stop-opacity=".28" offset=".83"/><stop stop-color="#FCE2E6" stop-opacity="0" offset="1"/></linearGradient><linearGradient id="e" x1="1109.3" x2="1887.1" y1="1383.8" y2="1383.8" gradientUnits="userSpaceOnUse"><stop stop-color="#FDB5B5" stop-opacity="0" offset="0"/><stop stop-color="#FDB5B5" stop-opacity=".03" offset=".07"/><stop stop-color="#FDB5B5" stop-opacity=".12" offset=".19"/><stop stop-color="#FDB5B5" stop-opacity=".27" offset=".34"/><stop stop-color="#FDB5B5" stop-opacity=".48" offset=".51"/><stop stop-color="#FDB5B5" stop-opacity=".72" offset=".68"/></linearGradient><linearGradient id="f" x1="118.94" x2="118.94" y1="92.112" y2="136.89" gradientUnits="userSpaceOnUse"><stop stop-color="#DEEBF9" offset=".03"/><stop stop-color="#DEEBF9" stop-opacity="0" offset="1"/></linearGradient><linearGradient id="g" x1="5.44" x2="78.128" y1="97.924" y2="97.924" gradientUnits="userSpaceOnUse"><stop stop-color="#425585" stop-opacity="0" offset="0"/><stop stop-color="#39487B" stop-opacity=".34" offset=".07"/><stop stop-color="#303D72" stop-opacity=".63" offset=".15"/><stop stop-color="#2B356B" stop-opacity=".83" offset=".23"/><stop stop-color="#273167" stop-opacity=".96" offset=".3"/><stop stop-color="#262F66" offset=".38"/><stop stop-color="#34457B" offset=".43"/><stop stop-color="#425A8F" offset=".5"/><stop stop-color="#4A679B" offset=".57"/><stop stop-color="#4D6B9F" offset=".63"/><stop stop-color="#4D6B9F" stop-opacity="0" offset="1"/></linearGradient><linearGradient id="h" x1="33.824" x2="16.496" y1="93.029" y2="93.029" gradientUnits="userSpaceOnUse"><stop stop-color="#5E8EC8" offset=".08"/><stop stop-color="#5E8EC8" offset=".23"/></linearGradient><linearGradient id="i" x1="9.622" x2="44.588" y1="82.299" y2="82.299" gradientUnits="userSpaceOnUse"><stop stop-color="#F6B2B3" offset=".28"/><stop stop-color="#F48F90" offset=".5"/></linearGradient><linearGradient id="j" x1="29.632" x2="29.632" y1="91.283" y2="102.24" gradientUnits="userSpaceOnUse"><stop stop-color="#242F65" offset=".29"/><stop stop-color="#253166" offset=".68"/><stop stop-color="#2A386C" offset=".81"/><stop stop-color="#334375" offset=".91"/><stop stop-color="#405483" offset=".99"/><stop stop-color="#425785" offset="1"/></linearGradient><linearGradient id="k" x1="16213" x2="16213" y1="3263.6" y2="2783.6" gradientUnits="userSpaceOnUse"><stop stop-color="#F6B2B3" offset=".28"/><stop stop-color="#F48F90" offset=".5"/></linearGradient><linearGradient id="l" x1="42.169" x2="45.702" y1="96.443" y2="96.443" gradientUnits="userSpaceOnUse"><stop stop-color="#242F65" offset=".32"/><stop stop-color="#242F65" offset=".9"/></linearGradient><linearGradient id="m" x1="45.164" x2="45.053" y1="96.928" y2="99.438" gradientUnits="userSpaceOnUse"><stop stop-color="#242F65" offset=".35"/><stop stop-color="#717FA2" offset="1"/></linearGradient><linearGradient id="n" x1="45.434" x2="45.365" y1="93.702" y2="95.408" gradientUnits="userSpaceOnUse"><stop stop-color="#425685" offset=".25"/><stop stop-color="#F6B2B3" offset="1"/></linearGradient><linearGradient id="o" x1="26.98" x2="30.971" y1="97.304" y2="97.304" gradientUnits="userSpaceOnUse"><stop stop-color="#242F65" stop-opacity="0" offset="0"/><stop stop-color="#242F65" stop-opacity=".02" offset=".31"/><stop stop-color="#242F65" stop-opacity=".11" offset=".5"/><stop stop-color="#242F65" stop-opacity=".25" offset=".64"/><stop stop-color="#242F65" stop-opacity=".44" offset=".78"/><stop stop-color="#242F65" stop-opacity=".7" offset=".89"/><stop stop-color="#242F65" offset="1"/></linearGradient><linearGradient id="p" x1="2505.1" x2="2515.8" y1="702.42" y2="702.42" gradientUnits="userSpaceOnUse"><stop stop-color="#242F65" stop-opacity="0" offset="0"/><stop stop-color="#242F65" stop-opacity=".02" offset=".31"/><stop stop-color="#242F65" stop-opacity=".11" offset=".5"/><stop stop-color="#242F65" stop-opacity=".25" offset=".64"/><stop stop-color="#242F65" stop-opacity=".44" offset=".78"/><stop stop-color="#242F65" stop-opacity=".7" offset=".89"/><stop stop-color="#242F65" offset="1"/></linearGradient><linearGradient id="q" x1="30.196" x2="29.995" y1="93.027" y2="96.499" gradientUnits="userSpaceOnUse"><stop stop-color="#242F65" offset="0"/><stop stop-color="#717FA2" offset=".29"/><stop stop-color="#242F65" offset=".76"/></linearGradient><linearGradient id="r" x1="30.419" x2="30.271" y1="94.281" y2="96.862" gradientUnits="userSpaceOnUse"><stop stop-color="#425685" offset=".3"/><stop stop-color="#242F65" offset="1"/></linearGradient><linearGradient id="s" x1="16.681" x2="22.426" y1="91.226" y2="91.226" gradientUnits="userSpaceOnUse"><stop stop-color="#242F65" stop-opacity="0" offset="0"/><stop stop-color="#242F65" stop-opacity=".02" offset=".17"/><stop stop-color="#242F65" stop-opacity=".11" offset=".26"/><stop stop-color="#242F65" stop-opacity=".25" offset=".34"/><stop stop-color="#242F65" stop-opacity=".44" offset=".41"/><stop stop-color="#242F65" stop-opacity=".7" offset=".48"/><stop stop-color="#242F65" offset=".53"/><stop stop-color="#242F65" stop-opacity="0" offset="1"/></linearGradient><linearGradient id="t" x1="34.401" x2="34.401" y1="81.896" y2="93.963" gradientUnits="userSpaceOnUse"><stop stop-color="#717FA2" offset=".02"/><stop stop-color="#425685" offset=".27"/></linearGradient><linearGradient id="u" x1="12.141" x2="12.087" y1="95.191" y2="97.115" gradientUnits="userSpaceOnUse"><stop stop-color="#F6B2B3" offset=".12"/><stop stop-color="#F6B2B3" offset="1"/></linearGradient><linearGradient id="v" x1="12008" x2="12008" y1="2251.1" y2="2025.3" gradientUnits="userSpaceOnUse"><stop stop-color="#717FA2" offset=".02"/><stop stop-color="#425685" offset=".27"/></linearGradient><linearGradient id="w" x1="3292.6" x2="3314.4" y1="677.2" y2="677.2" gradientUnits="userSpaceOnUse"><stop stop-color="#F6B2B3" offset=".28"/><stop stop-color="#F48F90" offset=".5"/></linearGradient><linearGradient id="x" x1="13.467" x2="13.467" y1="81.896" y2="93.48" gradientUnits="userSpaceOnUse"><stop stop-color="#7DA4D2" offset=".29"/><stop stop-color="#5E8EC8" offset=".52"/><stop stop-color="#425685" offset=".88"/></linearGradient><linearGradient id="y" x1="16.041" x2="19.468" y1="95.704" y2="95.697" gradientUnits="userSpaceOnUse"><stop stop-color="#F9D8D8" offset=".26"/><stop stop-color="#F9D5D5" offset=".48"/><stop stop-color="#F8CBCC" offset=".63"/><stop stop-color="#F7BBBC" offset=".78"/><stop stop-color="#F5A5A5" offset=".91"/><stop stop-color="#F48F90" offset="1"/></linearGradient><linearGradient id="z" x1="5.362" x2="7.53" y1="95.258" y2="95.249" gradientUnits="userSpaceOnUse"><stop stop-color="#F48F90" offset="0"/><stop stop-color="#F5A5A5" offset=".09"/><stop stop-color="#F7BBBC" offset=".22"/><stop stop-color="#F8CBCC" offset=".37"/><stop stop-color="#F9D5D5" offset=".52"/><stop stop-color="#F9D8D8" offset=".74"/></linearGradient><linearGradient id="A" x1="17.795" x2="17.795" y1="87.66" y2="93.963" gradientUnits="userSpaceOnUse"><stop stop-color="#242F65" offset=".04"/><stop stop-color="#425685" offset="1"/></linearGradient><linearGradient id="B" x1="7664.8" x2="7791.9" y1="12.448" y2="12.448" gradientUnits="userSpaceOnUse"><stop stop-color="#F6B2B3" offset=".12"/><stop stop-color="#F6B2B3" offset="1"/></linearGradient><linearGradient id="C" x1="7.341" x2="7.341" y1="83.386" y2="87.475" gradientUnits="userSpaceOnUse"><stop stop-color="#425685" offset="0"/><stop stop-color="#425685" stop-opacity=".98" offset=".2"/><stop stop-color="#425685" stop-opacity=".9" offset=".38"/><stop stop-color="#425685" stop-opacity=".77" offset=".53"/><stop stop-color="#425685" stop-opacity=".58" offset=".69"/><stop stop-color="#425685" stop-opacity=".34" offset=".83"/><stop stop-color="#425685" stop-opacity=".06" offset=".98"/><stop stop-color="#425685" stop-opacity="0" offset="1"/></linearGradient><linearGradient id="D" x1="19.247" x2="19.247" y1="83.554" y2="87.708" gradientUnits="userSpaceOnUse"><stop stop-color="#F48F90" offset="0"/><stop stop-color="#F6B2B3" offset=".11"/><stop stop-color="#F6B2B3" offset=".23"/></linearGradient><linearGradient id="E" x1="5.258" x2="7.574" y1="85.8" y2="85.8" gradientUnits="userSpaceOnUse"><stop stop-color="#425685" offset=".46"/><stop stop-color="#425685" stop-opacity="0" offset=".81"/></linearGradient><linearGradient id="F" x1="172.42" x2="172.42" y1="32.791" y2="82.991" gradientUnits="userSpaceOnUse"><stop stop-color="#CBD8E8" offset=".22"/><stop stop-color="#F1EAE3" offset=".46"/><stop stop-color="#FAD4AE" offset=".65"/><stop stop-color="#DDA294" offset=".81"/><stop stop-color="#B78680" offset=".93"/></linearGradient><linearGradient id="G" x1="177.92" x2="177.92" y1="32.018" y2="91.774" gradientUnits="userSpaceOnUse"><stop stop-color="#FEDADA" offset=".23"/><stop stop-color="#DBE4F1" offset=".45"/><stop stop-color="#DBE4F1" offset=".83"/></linearGradient><linearGradient id="H" x1="2379.1" x2="2379.1" y1="2525.5" y2="4456.3" gradientUnits="userSpaceOnUse"><stop stop-color="#FEDADA" offset=".23"/><stop stop-color="#DBE4F1" offset=".45"/><stop stop-color="#DBE4F1" offset=".83"/></linearGradient><linearGradient id="I" x1="148.7" x2="148.7" y1="52.49" y2="91.693" gradientUnits="userSpaceOnUse"><stop stop-color="#FDEEF1" offset="0"/><stop stop-color="#FCE2E6" offset=".41"/><stop stop-color="#FCE2E6" stop-opacity=".97" offset=".43"/><stop stop-color="#FCE2E6" stop-opacity=".28" offset=".83"/><stop stop-color="#FCE2E6" stop-opacity="0" offset="1"/></linearGradient><linearGradient id="J" x1="2424.9" x2="2424.9" y1="2250.7" y2="3308.5" gradientUnits="userSpaceOnUse"><stop stop-color="#BFD2E8" offset=".69"/><stop stop-color="#BFD2E8" offset=".81"/></linearGradient><linearGradient id="K" x1="163.78" x2="163.78" y1="58.648" y2="62.367" gradientUnits="userSpaceOnUse"><stop stop-color="#BFD2E8" offset="0"/><stop stop-color="#C2D2E7" offset=".3"/><stop stop-color="#CCD3E4" offset=".54"/><stop stop-color="#DED5E0" offset=".76"/><stop stop-color="#F5D8D9" offset=".97"/><stop stop-color="#F9D8D8" offset="1"/></linearGradient><linearGradient id="L" x1="1400.4" x2="1400.4" y1="-1967.8" y2="-1752.5" gradientUnits="userSpaceOnUse"><stop stop-color="#425685" offset=".3"/><stop stop-color="#242F65" offset="1"/></linearGradient><linearGradient id="M" x1="15029" x2="22347" y1="-1077.8" y2="-1077.8" gradientUnits="userSpaceOnUse"><stop stop-color="#425685" offset=".3"/><stop stop-color="#242F65" offset="1"/></linearGradient><linearGradient id="N" x1="155.02" x2="237.52" y1="90.236" y2="90.236" gradientUnits="userSpaceOnUse"><stop stop-color="#F06B6C" offset=".21"/><stop stop-color="#F6B2B3" offset="1"/></linearGradient><linearGradient id="O" x1="156.62" x2="209.15" y1="88.28" y2="88.28" gradientUnits="userSpaceOnUse"><stop stop-color="#425685" offset=".73"/><stop stop-color="#717FA2" offset=".98"/></linearGradient><linearGradient id="P" x1="186.37" x2="188.27" y1="87.789" y2="87.789" gradientUnits="userSpaceOnUse"><stop stop-color="#425685" offset=".13"/><stop stop-color="#425685" offset=".3"/></linearGradient><linearGradient id="Q" x1="233.64" x2="234.98" y1="95.444" y2="94.679" gradientUnits="userSpaceOnUse"><stop stop-color="#F48F90" offset=".04"/><stop stop-color="#F48F90" offset=".3"/></linearGradient><linearGradient id="R" x1="164.32" x2="170.29" y1="84.335" y2="80.906" gradientUnits="userSpaceOnUse"><stop stop-color="#F48F90" offset="0"/><stop stop-color="#F49495" stop-opacity=".85" offset=".17"/><stop stop-color="#F5A2A2" stop-opacity=".46" offset=".56"/><stop stop-color="#F6B2B2" stop-opacity="0" offset="1"/></linearGradient><linearGradient id="S" x1="2002.8" x2="2002.8" y1="-437.18" y2="-420.43" gradientUnits="userSpaceOnUse"><stop stop-color="#F9D8D8" offset=".26"/><stop stop-color="#F9D5D5" offset=".48"/><stop stop-color="#F8CBCC" offset=".63"/><stop stop-color="#F7BBBC" offset=".78"/><stop stop-color="#F5A5A5" offset=".91"/><stop stop-color="#F48F90" offset="1"/></linearGradient><linearGradient id="T" x1="220.38" x2="220.38" y1="80.133" y2="88.207" gradientUnits="userSpaceOnUse"><stop stop-color="#BFD3EA" offset=".34"/><stop stop-color="#5E8FCA" offset=".88"/><stop stop-color="#5D8DC8" offset=".89"/><stop stop-color="#4E6FA4" offset=".94"/><stop stop-color="#455C8D" offset=".97"/><stop stop-color="#425585" offset="1"/></linearGradient><linearGradient id="U" x1="169.18" x2="169.18" y1="89.407" y2="105.08" gradientUnits="userSpaceOnUse"><stop stop-color="#4D6B9F" offset=".05"/><stop stop-color="#252E65" offset=".12"/><stop stop-color="#262F66" offset=".62"/><stop stop-color="#273167" stop-opacity=".96" offset=".7"/><stop stop-color="#2B356B" stop-opacity=".83" offset=".77"/><stop stop-color="#303D72" stop-opacity=".63" offset=".85"/><stop stop-color="#39487B" stop-opacity=".34" offset=".93"/><stop stop-color="#425585" stop-opacity="0" offset="1"/></linearGradient><linearGradient id="V" x1="107.3" x2="155.7" y1="89.133" y2="89.133" gradientUnits="userSpaceOnUse"><stop stop-color="#F48F90" offset="0"/><stop stop-color="#F06B6C" offset=".63"/></linearGradient><linearGradient id="W" x1="130.78" x2="130.78" y1="90.518" y2="95.147" gradientUnits="userSpaceOnUse"><stop stop-color="#425685" offset=".18"/><stop stop-color="#425685" offset=".3"/></linearGradient><linearGradient id="X" x1="107.8" x2="152.43" y1="88.417" y2="88.417" gradientUnits="userSpaceOnUse"><stop stop-color="#717FA2" offset=".02"/><stop stop-color="#425685" offset="1"/></linearGradient><linearGradient id="Y" x1="1489.6" x2="1529.4" y1="2325.6" y2="2325.6" gradientUnits="userSpaceOnUse"><stop stop-color="#425685" offset=".13"/><stop stop-color="#425685" offset=".3"/></linearGradient><linearGradient id="Z" x1="121.26" x2="68.144" y1="167.7" y2="160.45" gradientUnits="userSpaceOnUse"><stop stop-color="#F79B4B" offset=".12"/><stop stop-color="#EC9148" offset=".14"/><stop stop-color="#D67B41" offset=".21"/><stop stop-color="#C56C3D" offset=".29"/><stop stop-color="#BC633A" offset=".38"/><stop stop-color="#B96039" offset=".5"/><stop stop-color="#BD6237" offset=".58"/><stop stop-color="#C8692F" offset=".65"/><stop stop-color="#CE6C2C" offset=".68"/><stop stop-color="#F6C18F" offset=".92"/><stop stop-color="#F6C18F" offset="1"/></linearGradient><linearGradient id="aa" x1="111.5" x2="111.5" y1="131.84" y2="163" gradientUnits="userSpaceOnUse"><stop stop-color="#FA6B6B" offset=".22"/><stop stop-color="#FB8989" offset="1"/></linearGradient><linearGradient id="ab" x1="113.82" x2="113.59" y1="130.56" y2="142.26" gradientUnits="userSpaceOnUse"><stop stop-color="#252E65" offset="0"/><stop stop-color="#252E65" stop-opacity="0" offset="1"/></linearGradient><linearGradient id="ac" x1="71.992" x2="84.952" y1="108.32" y2="95.445" gradientUnits="userSpaceOnUse"><stop stop-color="#FB8989" offset=".17"/><stop stop-color="#FDB5B5" offset=".86"/></linearGradient><linearGradient id="ad" x1="122.24" x2="70.738" y1="154.15" y2="130.95" gradientUnits="userSpaceOnUse"><stop stop-color="#EF4849" offset=".37"/><stop stop-color="#F05051" offset=".4"/><stop stop-color="#F27273" offset=".56"/><stop stop-color="#F38788" offset=".69"/><stop stop-color="#F48F90" offset=".78"/></linearGradient><linearGradient id="ae" x1="77.844" x2="77.172" y1="105.65" y2="106.78" gradientUnits="userSpaceOnUse"><stop stop-color="#D7A990" offset=".5"/><stop stop-color="#B96039" stop-opacity="0" offset=".76"/></linearGradient><linearGradient id="af" x1="80.68" x2="71.656" y1="109.06" y2="116.86" gradientUnits="userSpaceOnUse"><stop stop-color="#FB8989" offset=".17"/><stop stop-color="#FB8989" offset=".39"/><stop stop-color="#FB8989" stop-opacity="0" offset="1"/></linearGradient><linearGradient id="ag" x1="12400" x2="12755" y1="25.103" y2="154.8" gradientUnits="userSpaceOnUse"><stop stop-color="#F79B4B" offset=".12"/><stop stop-color="#EC9148" offset=".14"/><stop stop-color="#D67B41" offset=".21"/><stop stop-color="#C56C3D" offset=".29"/><stop stop-color="#BC633A" offset=".38"/><stop stop-color="#B96039" offset=".5"/><stop stop-color="#BD6237" offset=".58"/><stop stop-color="#C8692F" offset=".65"/><stop stop-color="#CE6C2C" offset=".68"/><stop stop-color="#F6C18F" offset=".92"/><stop stop-color="#F6C18F" offset="1"/></linearGradient><linearGradient id="ah" x1="85.608" x2="117.61" y1="146.65" y2="146.65" gradientUnits="userSpaceOnUse"><stop stop-color="#FB8989" offset=".08"/><stop stop-color="#FB8989" offset="1"/></linearGradient><linearGradient id="ai" x1="87.896" x2="70.989" y1="88.803" y2="68.774" gradientUnits="userSpaceOnUse"><stop stop-color="#FA6B6B" offset=".39"/><stop stop-color="#F48F90" offset=".48"/><stop stop-color="#FBD9D9" offset=".9"/></linearGradient><linearGradient id="aj" x1="81.321" x2="74.044" y1="81.094" y2="69.473" gradientUnits="userSpaceOnUse"><stop stop-color="#F16B6C" stop-opacity="0" offset="0"/><stop stop-color="#F16B6C" offset=".35"/><stop stop-color="#F16B6C" stop-opacity="0" offset="1"/></linearGradient><linearGradient id="ak" x1="113.66" x2="113.66" y1="5.816" y2="128.91" gradientUnits="userSpaceOnUse"><stop stop-color="#7EA6D6" offset="0"/><stop stop-color="#81A8D7" offset=".25"/><stop stop-color="#8BAFDA" offset=".45"/><stop stop-color="#9BBADF" offset=".62"/><stop stop-color="#9EBCE0" offset=".65"/></linearGradient><linearGradient id="al" x1="120.14" x2="121.34" y1="6.902" y2="6.902" gradientUnits="userSpaceOnUse"><stop stop-color="#5273A9" offset=".15"/><stop stop-color="#5273A9" offset=".33"/></linearGradient><linearGradient id="am" x1="81.088" x2="81.088" y1="19.396" y2="24.556" gradientUnits="userSpaceOnUse"><stop stop-color="#2B4681" offset="0"/><stop stop-color="#5273A9" offset=".07"/><stop stop-color="#5273A9" offset=".91"/><stop stop-color="#2B4681" offset="1"/></linearGradient><linearGradient id="an" x1="155.32" x2="155.32" y1="2176.6" y2="2065.1" gradientUnits="userSpaceOnUse"><stop stop-color="#2B4681" offset="0"/><stop stop-color="#5273A9" offset=".07"/><stop stop-color="#5273A9" offset=".91"/><stop stop-color="#2B4681" offset="1"/></linearGradient><linearGradient id="ao" x1="155.32" x2="155.32" y1="2046.9" y2="1935.5" gradientUnits="userSpaceOnUse"><stop stop-color="#2B4681" offset="0"/><stop stop-color="#5273A9" offset=".07"/><stop stop-color="#5273A9" offset=".91"/><stop stop-color="#2B4681" offset="1"/></linearGradient><linearGradient id="ap" x1="214.66" x2="214.66" y1="3425" y2="3136.9" gradientUnits="userSpaceOnUse"><stop stop-color="#2B4681" offset="0"/><stop stop-color="#5273A9" offset=".07"/><stop stop-color="#5273A9" offset=".91"/><stop stop-color="#2B4681" offset="1"/></linearGradient><linearGradient id="aq" x1="67.984" x2="160.04" y1="113.03" y2="21.547" gradientUnits="userSpaceOnUse"><stop stop-color="#5883BB" stop-opacity=".2" offset=".21"/><stop stop-color="#5E8EC8" offset=".68"/><stop stop-color="#8D99C1" offset=".79"/><stop stop-color="#F6B2B3" offset="1"/></linearGradient><linearGradient id="ar" x1="113.69" x2="113.69" y1="128.26" y2="127.27" gradientUnits="userSpaceOnUse"><stop stop-color="#4E6EA5" offset=".26"/><stop stop-color="#2B4681" offset="1"/></linearGradient><linearGradient id="as" x1="113.14" x2="165.11" y1="116.25" y2="114.7" gradientUnits="userSpaceOnUse"><stop stop-color="#FDB5B5" offset=".72"/><stop stop-color="#FDB5B5" offset=".81"/></linearGradient><linearGradient id="at" x1="139.87" x2="169.88" y1="92.198" y2="97.608" gradientUnits="userSpaceOnUse"><stop stop-color="#F16B6C" stop-opacity=".65" offset="0"/><stop stop-color="#F16B6C" stop-opacity="0" offset="1"/></linearGradient><linearGradient id="au" x1="110.38" x2="161.38" y1="136.05" y2="134.53" gradientUnits="userSpaceOnUse"><stop stop-color="#FB8989" offset=".2"/><stop stop-color="#FA6B6B" stop-opacity=".1" offset="1"/></linearGradient><linearGradient id="av" x1="61.514" x2="61.514" y1="28.919" y2="53.512" gradientUnits="userSpaceOnUse"><stop stop-color="#FEFEFE" stop-opacity=".69" offset="0"/><stop stop-color="#FCFCFD" stop-opacity="0" offset="1"/></linearGradient><linearGradient id="aw" x1="43.919" x2="43.919" y1="19.75" y2="34.675" gradientUnits="userSpaceOnUse"><stop stop-color="#5E8FCA" offset="0"/><stop stop-color="#88ADD9" offset=".6"/></linearGradient><linearGradient id="ax" x1="29.804" x2="29.804" y1="29.104" y2="32.043" gradientUnits="userSpaceOnUse"><stop stop-color="#7EA6D6" offset=".1"/><stop stop-color="#5573A6" offset=".55"/></linearGradient><linearGradient id="ay" x1="44.81" x2="47.437" y1="29.676" y2="29.676" gradientUnits="userSpaceOnUse"><stop stop-color="#D6ABB9" offset="0"/><stop stop-color="#F7B3B4" offset=".88"/></linearGradient><linearGradient id="az" x1="39.998" x2="35.074" y1="19.396" y2="19.396" gradientUnits="userSpaceOnUse"><stop stop-color="#425486" offset="0"/><stop stop-color="#475F93" offset=".09"/><stop stop-color="#5175AC" offset=".29"/><stop stop-color="#5884BE" offset=".51"/><stop stop-color="#5D8DC9" offset=".74"/><stop stop-color="#5E90CC" offset="1"/></linearGradient><linearGradient id="aA" x1="44.541" x2="45.46" y1="24.081" y2="24.081" gradientUnits="userSpaceOnUse"><stop stop-color="#F7B3B4" offset=".67"/><stop stop-color="#D4ABB9" offset=".7"/></linearGradient><linearGradient id="aB" x1="30.76" x2="30.76" y1="29.104" y2="32.92" gradientUnits="userSpaceOnUse"><stop stop-color="#5E8FCA" offset="0"/><stop stop-color="#9BBADF" offset=".86"/></linearGradient><linearGradient id="aC" x1="29.777" x2="29.777" y1="29.434" y2="31.6" gradientUnits="userSpaceOnUse"><stop stop-color="#5573A6" offset=".42"/><stop stop-color="#5573A6" offset=".55"/></linearGradient><linearGradient id="aD" x1="20.06" x2="20.998" y1="33.484" y2="33.484" gradientUnits="userSpaceOnUse"><stop stop-color="#D4ABB9" offset=".7"/><stop stop-color="#F7B3B4" offset=".85"/></linearGradient><linearGradient id="aE" x1="1150.6" x2="1150.9" y1="676.69" y2="676.69" gradientUnits="userSpaceOnUse"><stop stop-color="#D4ABB9" offset=".7"/><stop stop-color="#F7B3B4" offset=".85"/></linearGradient><linearGradient id="aF" x1="49.849" x2="50.87" y1="26.102" y2="26.102" gradientUnits="userSpaceOnUse"><stop stop-color="#D3AAB9" offset=".72"/><stop stop-color="#F7B3B4" offset=".88"/></linearGradient><linearGradient id="aG" x1="48.142" x2="48.142" y1="24.033" y2="27.003" gradientUnits="userSpaceOnUse"><stop stop-color="#5573A6" offset=".45"/><stop stop-color="#7EA6D6" offset=".9"/></linearGradient><linearGradient id="aH" x1="5909.5" x2="5909.5" y1="565.79" y2="558.94" gradientUnits="userSpaceOnUse"><stop stop-color="#5573A6" offset=".42"/><stop stop-color="#5573A6" offset=".55"/></linearGradient><linearGradient id="aI" x1="92.925" x2="134.27" y1="64.729" y2="64.829" gradientUnits="userSpaceOnUse"><stop stop-color="#242F65" offset="0"/><stop stop-color="#273368" offset=".33"/><stop stop-color="#303E71" offset=".64"/><stop stop-color="#3E5180" offset=".93"/><stop stop-color="#425684" offset="1"/></linearGradient><linearGradient id="aJ" x1="116.75" x2="116.75" y1="67.124" y2="163" gradientUnits="userSpaceOnUse"><stop stop-color="#fff" stop-opacity="0" offset=".63"/><stop stop-color="#F1F2F6" stop-opacity=".1" offset=".68"/><stop stop-color="#F1F2F6" stop-opacity=".37" offset=".78"/><stop stop-color="#F1F2F6" stop-opacity=".77" offset=".93"/><stop stop-color="#F1F2F6" offset="1"/></linearGradient><clipPath id="a"><path transform="translate(0 2)" fill="#fff" d="M0 0h240v161H0z"/></clipPath></defs></svg>