<svg xmlns="http://www.w3.org/2000/svg" xmlns:xlink="http://www.w3.org/1999/xlink" viewBox="0 0 104 88" xmlns:v="https://vecta.io/nano"><style><![CDATA[.BA{fill:#fb8989}.BB{fill:#76a1d4}.BC{fill:#425486}]]></style><defs><linearGradient id="A" x1="52" y1="57.42" x2="52" y2="84.86" xlink:href="#Ak"><stop offset=".31" stop-color="#cde2f5"/><stop offset="1" stop-color="#fff"/></linearGradient><linearGradient id="B" x1="52" y1="27.52" x2="52" y2="57.74" xlink:href="#Ak"><stop offset=".24" stop-color="#9ebce0"/><stop offset=".6" stop-color="#a2c1e4"/><stop offset="1" stop-color="#acceef"/></linearGradient><linearGradient id="C" x1="31.24" y1="24.05" x2="31.24" y2="30.49" xlink:href="#Ak"><stop offset=".09" stop-color="#a6c2e1"/></linearGradient><linearGradient id="D" x1="58.62" y1="21.98" x2="60.56" y2="21.98" xlink:href="#Ak"><stop offset=".45" stop-color="#88aeda"/></linearGradient><linearGradient id="E" x1="60.56" y1="21.57" x2="65.42" y2="21.57" xlink:href="#D"/><linearGradient id="F" x1="58.77" y1="13.28" x2="74.02" y2="13.28" xlink:href="#Ak"><stop offset="0" stop-color="#fdb5b5"/><stop offset=".77" stop-color="#fb8989"/></linearGradient><linearGradient id="G" x1="62.87" y1="20.53" x2="62.87" y2="23.21" xlink:href="#Ak"><stop offset=".53" stop-color="#6999d1"/><stop offset=".73" stop-color="#78a3d5"/><stop offset="1" stop-color="#88aeda"/></linearGradient><linearGradient id="H" x1="61.96" y1="21.46" x2="63.56" y2="21.46" xlink:href="#Ak"><stop offset=".76" stop-color="#628bc1"/></linearGradient><linearGradient id="I" x1="58.32" y1="26.51" x2="74.52" y2="26.51" xlink:href="#Ak"><stop offset="0" stop-color="#6998cf"/><stop offset="1" stop-color="#628bc1"/></linearGradient><linearGradient id="J" x1="62.72" y1="21.79" x2="63.68" y2="21.79" xlink:href="#Ak"><stop offset=".62" stop-color="#5674a8"/></linearGradient><linearGradient id="K" x1="57.39" y1="27.15" x2="59.74" y2="27.15" xlink:href="#D"/><linearGradient id="L" x1="35.73" y1="9.83" x2="40.99" y2="9.83" xlink:href="#Ak"><stop offset=".54" stop-color="#9ebce0" stop-opacity=".94"/><stop offset=".59" stop-color="#88aeda"/></linearGradient><linearGradient id="M" x1="38.26" y1="7.43" x2="38.42" y2="7.43" xlink:href="#Ak"><stop offset=".52" stop-color="#88aeda" stop-opacity=".5"/><stop offset="1" stop-color="#88aeda"/></linearGradient><linearGradient id="N" x1="28.41" y1="21.6" x2="35.91" y2="21.6" xlink:href="#Ak"><stop offset="0" stop-color="#fdb5b5"/><stop offset=".34" stop-color="#fca3a3"/></linearGradient><linearGradient id="O" x1="37.35" y1="11.74" x2="37.35" y2="30.24" xlink:href="#Ak"><stop offset=".19" stop-color="#a7c3e3"/><stop offset=".77" stop-color="#88aeda"/></linearGradient><linearGradient id="P" x1="31.15" y1="18.09" x2="33.19" y2="18.09" xlink:href="#L"/><linearGradient id="Q" x1="32.16" y1="18.09" x2="33.19" y2="18.09" xlink:href="#Ak"><stop offset=".86" stop-color="#638cc3"/><stop offset="1" stop-color="#628bc1"/></linearGradient><linearGradient id="R" x1="31.15" y1="18.96" x2="32.61" y2="18.96" xlink:href="#Ak"><stop offset=".51" stop-color="#88aeda"/></linearGradient><linearGradient id="S" x1="37.21" y1="10.75" x2="37.21" y2="11.77" xlink:href="#O"/><linearGradient id="T" x1="41.05" y1="10.54" x2="38.67" y2="10.54" xlink:href="#Ak"><stop offset=".14" stop-color="#74a1d4"/></linearGradient><linearGradient id="U" x1="40.98" y1="11.26" x2="38.66" y2="11.26" xlink:href="#Q"/><linearGradient id="V" x1="37.35" y1="13.05" x2="37.35" y2="17.88" xlink:href="#Ak"><stop offset=".19" stop-color="#6998cf"/><stop offset=".37" stop-color="#6998cf"/><stop offset="1" stop-color="#6998cf" stop-opacity="0"/></linearGradient><linearGradient id="W" x1="38.73" y1="20.99" x2="40.8" y2="20.99" xlink:href="#Q"/><linearGradient id="X" x1="33.5" y1="22.2" x2="35.77" y2="22.2" xlink:href="#O"/><linearGradient id="Y" x1="72.9" y1="17.87" x2="72.9" y2="24.83" xlink:href="#I"/><linearGradient id="Z" x1="33.26" y1="23.96" x2="34.11" y2="23.96" xlink:href="#O"/><linearGradient id="a" x1="34.11" y1="23.93" x2="35.25" y2="23.93" xlink:href="#Q"/><linearGradient id="b" x1="46.48" y1="23.76" x2="59.16" y2="23.76" xlink:href="#D"/><linearGradient id="c" x1="46.48" y1="26.58" x2="58.52" y2="26.58" xlink:href="#Ak"><stop offset=".42" stop-color="#6998cf"/></linearGradient><linearGradient id="d" x1="44.42" y1="21.46" x2="44.42" y2="30.25" xlink:href="#Ak"><stop offset=".37" stop-color="#88aeda"/></linearGradient><linearGradient id="e" x1="45.46" y1="25.86" x2="46.48" y2="25.86" xlink:href="#Q"/><linearGradient id="f" x1="45.46" y1="20.31" x2="46.65" y2="20.31" xlink:href="#Q"/><linearGradient id="g" x1="43.12" y1="21.18" x2="45.46" y2="21.18" xlink:href="#Q"/><linearGradient id="h" x1="44.01" y1="23.67" x2="44.73" y2="23.67" xlink:href="#Ak"><stop offset=".63" stop-color="#6998cf"/></linearGradient><linearGradient id="i" x1="62.12" y1="28.38" x2="64.57" y2="28.38" xlink:href="#Q"/><linearGradient id="j" x1="71.64" y1="27" x2="76.58" y2="27" xlink:href="#Ak"><stop offset=".47" stop-color="#6999d1"/></linearGradient><linearGradient id="k" x1="33.5" y1="28.09" x2="35.91" y2="28.09" xlink:href="#Q"/><linearGradient id="l" x1="64.47" y1="4.29" x2="68.13" y2="4.29" xlink:href="#M"/><linearGradient id="m" x1="66.6" y1=".44" x2="66.6" y2="8.14" xlink:href="#Ak"><stop offset=".18" stop-color="#9ebce0" stop-opacity=".94"/><stop offset="1" stop-color="#88aeda"/></linearGradient><linearGradient id="n" x1="65.07" y1="7.32" x2="65.77" y2="7.32" xlink:href="#Ak"><stop offset=".18" stop-color="#88aeda" stop-opacity=".94"/><stop offset="1" stop-color="#88aeda"/></linearGradient><linearGradient id="o" x1="59.59" y1="19.75" x2="59.59" y2="23.44" xlink:href="#Ak"><stop offset=".19" stop-color="#a7c3e3"/><stop offset="1" stop-color="#a7c3e3" stop-opacity="0"/></linearGradient><linearGradient id="p" x1="70.74" y1="8.31" x2="70.74" y2="18.19" xlink:href="#Ak"><stop offset="0" stop-color="#425486" stop-opacity="0"/><stop offset=".91" stop-color="#425486"/></linearGradient><linearGradient id="q" x1="67.6" y1="13.12" x2="74" y2="13.12" xlink:href="#Ak"><stop offset="0" stop-color="#eabac1"/><stop offset=".26" stop-color="#d8b8c6"/><stop offset=".32" stop-color="#d3b7c7"/></linearGradient><linearGradient id="r" x1="65.06" y1="13.08" x2="71.42" y2="13.08" xlink:href="#Ak"><stop offset="0" stop-color="#fdb5b5"/><stop offset=".5" stop-color="#fc9b9b"/></linearGradient><linearGradient id="s" x1="59.35" y1="21.88" x2="59.92" y2="21.88" xlink:href="#Ak"><stop offset=".72" stop-color="#81a9d8"/><stop offset="1" stop-color="#88aeda"/></linearGradient><linearGradient id="t" x1="70.86" y1="18.8" x2="74.04" y2="18.8" xlink:href="#I"/><linearGradient id="u" x1="35.2" y1="26.05" x2="35.91" y2="26.05" xlink:href="#Ak"><stop offset=".74" stop-color="#5a7eaf"/></linearGradient><linearGradient id="v" x1="72.52" y1="23.44" x2="72.52" y2="26.77" xlink:href="#Ak"><stop offset=".11" stop-color="#fdb5b5" stop-opacity="0"/><stop offset="1" stop-color="#fdb5b5"/></linearGradient><linearGradient id="w" x1="71.52" y1="29.34" x2="73.36" y2="29.34" xlink:href="#D"/><linearGradient id="x" x1="33.5" y1="18.4" x2="34.45" y2="18.4" xlink:href="#O"/><linearGradient id="y" x1="33.5" y1="18.4" x2="35.77" y2="18.4" xlink:href="#O"/><linearGradient id="z" x1="34.52" y1="18.4" x2="35.77" y2="18.4" xlink:href="#Q"/><linearGradient id="AA" x1="68.15" y1="17.9" x2="68.15" y2="23.2" xlink:href="#Ak"><stop offset=".33" stop-color="#628bc1"/><stop offset=".35" stop-color="#6998cf"/></linearGradient><linearGradient id="AB" x1="67.16" y1="21.87" x2="69.5" y2="21.87" xlink:href="#H"/><linearGradient id="AC" x1="67.56" y1="21.75" x2="68.87" y2="21.75" xlink:href="#Ak"><stop offset=".85" stop-color="#5e82b8"/><stop offset="1" stop-color="#5674a8"/></linearGradient><linearGradient id="AD" x1="52.13" y1="29.02" x2="52.13" y2="69.22" xlink:href="#Ak"><stop offset=".29" stop-color="#425486"/><stop offset=".65" stop-color="#717fa4"/></linearGradient><linearGradient id="AE" x1="52.01" y1="31.17" x2="52.01" y2="66.53" xlink:href="#Ak"><stop offset="0" stop-color="#bdd8f2"/><stop offset="1" stop-color="#fdb5b5"/></linearGradient><linearGradient id="AF" x1="92.51" y1="48.87" x2="92.51" y2="75.79" xlink:href="#Ak"><stop offset=".43" stop-color="#fa6b6b"/><stop offset="1" stop-color="#fb8989"/></linearGradient><linearGradient id="AG" x1="85.78" y1="39.14" x2="85.78" y2="87.88" xlink:href="#Ak"><stop offset="0" stop-color="#fb8989"/><stop offset=".26" stop-color="#fca1a1"/><stop offset=".51" stop-color="#fdb0b0"/><stop offset=".71" stop-color="#fdb5b5"/><stop offset=".74" stop-color="#fdb5b5" stop-opacity=".98"/><stop offset=".76" stop-color="#fdb5b5" stop-opacity=".93"/><stop offset=".79" stop-color="#fdb5b5" stop-opacity=".85"/><stop offset=".82" stop-color="#fdb5b5" stop-opacity=".74"/><stop offset=".85" stop-color="#fdb5b5" stop-opacity=".59"/><stop offset=".89" stop-color="#fdb5b5" stop-opacity=".41"/><stop offset=".92" stop-color="#fdb5b5" stop-opacity=".2"/><stop offset=".94" stop-color="#fdb5b5" stop-opacity="0"/></linearGradient><linearGradient id="AH" x1="77.5" y1="68.88" x2="77.5" y2="81.94" xlink:href="#Ak"><stop offset=".15" stop-color="#fb8989"/><stop offset=".68" stop-color="#fa6b6b" stop-opacity="0"/></linearGradient><linearGradient id="AI" x1="88.25" y1="39.14" x2="88.25" y2="88" xlink:href="#Ak"><stop offset=".52" stop-color="#fb8282" stop-opacity=".54"/><stop offset=".59" stop-color="#fb8080" stop-opacity=".51"/><stop offset=".69" stop-color="#fb7c7c" stop-opacity=".41"/><stop offset=".83" stop-color="#fa7575" stop-opacity=".24"/><stop offset=".98" stop-color="#fa6c6c" stop-opacity=".02"/><stop offset="1" stop-color="#fa6b6b" stop-opacity="0"/></linearGradient><linearGradient id="AJ" x1="81.43" y1="45.33" x2="81.44" y2="45.33" xlink:href="#Ak"><stop offset=".78" stop-color="#fa6b6b"/><stop offset=".81" stop-color="#fa6e6e" stop-opacity=".91"/><stop offset=".86" stop-color="#fa7575" stop-opacity=".68"/><stop offset=".94" stop-color="#fb7f7f" stop-opacity=".32"/><stop offset="1" stop-color="#fb8989" stop-opacity="0"/></linearGradient><linearGradient id="AK" x1="79.64" y1="47.54" x2="83.05" y2="47.54" xlink:href="#Ak"><stop offset=".46" stop-color="#fbd9d9"/><stop offset="1" stop-color="#fbabab"/></linearGradient><linearGradient id="AL" x1="81.96" y1="53.33" x2="87.37" y2="49.69" xlink:href="#Ak"><stop offset=".4" stop-color="#fa6e6e" stop-opacity=".81"/><stop offset=".63" stop-color="#fa7878" stop-opacity=".66"/><stop offset="1" stop-color="#fb8989" stop-opacity=".4"/></linearGradient><linearGradient id="AM" x1="24.84" y1="49.12" x2="25.69" y2="49.12" xlink:href="#B"/><linearGradient id="AN" x1="29.57" y1="24.67" x2="29.57" y2="28.11" xlink:href="#Ak"><stop offset="0" stop-color="#638cc3"/><stop offset="1" stop-color="#628bc1" stop-opacity="0"/></linearGradient><linearGradient id="AO" x1="34.75" y1="31.12" x2="34.75" y2="41.32" xlink:href="#Ak"><stop offset=".23" stop-color="#88aeda"/><stop offset=".81" stop-color="#a7c3e3" stop-opacity="0"/></linearGradient><linearGradient id="AP" x1="40.14" y1="31.13" x2="40.14" y2="41.58" xlink:href="#AN"/><linearGradient id="AQ" x1="34.89" y1="31.14" x2="34.89" y2="39.77" xlink:href="#Ak"><stop offset="0" stop-color="#638cc3"/><stop offset=".73" stop-color="#628bc1" stop-opacity="0"/></linearGradient><linearGradient id="AR" x1="50.95" y1="31.14" x2="50.95" y2="37.95" xlink:href="#AO"/><linearGradient id="AS" x1="44.53" y1="31.12" x2="44.53" y2="43.8" xlink:href="#Ak"><stop offset=".15" stop-color="#88aeda"/><stop offset=".53" stop-color="#88aeda" stop-opacity="0"/></linearGradient><linearGradient id="AT" x1="70.94" y1="35.524" x2="70.94" y2="22.736" xlink:href="#Ak"><stop offset=".19" stop-color="#a7c3e3" stop-opacity="0"/><stop offset=".77" stop-color="#88aeda"/></linearGradient><linearGradient id="AU" x1="62.91" y1="22.736" x2="62.91" y2="33.795" xlink:href="#Ak"><stop offset=".59" stop-color="#88aeda"/><stop offset=".81" stop-color="#a7c3e3" stop-opacity="0"/></linearGradient><linearGradient id="AV" x1="59.56" y1="22.736" x2="59.56" y2="33.684" xlink:href="#AO"/><linearGradient id="AW" x1="46.09" y1="31.16" x2="46.09" y2="43.95" xlink:href="#Ak"><stop offset="0" stop-color="#638cc3"/><stop offset=".4" stop-color="#628bc1" stop-opacity="0"/></linearGradient><linearGradient id="AX" x1="69.17" y1="35.2" x2="69.17" y2="52.99" xlink:href="#Ak"><stop offset=".24" stop-color="#9ebce0"/><stop offset=".32" stop-color="#9ebce0" stop-opacity=".98"/><stop offset=".42" stop-color="#9fbee1" stop-opacity=".91"/><stop offset=".53" stop-color="#a1c0e3" stop-opacity=".8"/><stop offset=".65" stop-color="#a3c2e5" stop-opacity=".65"/><stop offset=".77" stop-color="#a6c6e8" stop-opacity=".45"/><stop offset=".9" stop-color="#a9caec" stop-opacity=".22"/><stop offset="1" stop-color="#acceef" stop-opacity="0"/></linearGradient><linearGradient id="AY" x1="34.71" y1="40.76" x2="34.71" y2="60.58" xlink:href="#Ak"><stop offset=".24" stop-color="#9ebce0"/><stop offset=".43" stop-color="#a3c3e6" stop-opacity=".63"/><stop offset=".66" stop-color="#a9cbec" stop-opacity=".18"/><stop offset=".77" stop-color="#acceef" stop-opacity="0"/></linearGradient><linearGradient id="AZ" x1="56.68" y1="36.41" x2="56.68" y2="56.72" xlink:href="#Ak"><stop offset=".03" stop-color="#6998cf"/><stop offset=".12" stop-color="#6998cf" stop-opacity=".92"/><stop offset=".31" stop-color="#6998cf" stop-opacity=".7"/><stop offset=".58" stop-color="#6998cf" stop-opacity=".36"/><stop offset=".83" stop-color="#6998cf" stop-opacity="0"/></linearGradient><linearGradient id="Aa" x1="53.66" y1="36.42" x2="53.66" y2="55.2" xlink:href="#Ak"><stop offset=".1" stop-color="#fff"/><stop offset=".61" stop-color="#fff" stop-opacity="0"/></linearGradient><linearGradient id="Ab" x1="39.34" y1="44.37" x2="39.34" y2="59.13" xlink:href="#Ak"><stop offset="0" stop-color="#6998cf"/><stop offset=".02" stop-color="#6998cf" stop-opacity=".96"/><stop offset=".13" stop-color="#6998cf" stop-opacity=".71"/><stop offset=".25" stop-color="#6998cf" stop-opacity=".49"/><stop offset=".37" stop-color="#6998cf" stop-opacity=".31"/><stop offset=".48" stop-color="#6998cf" stop-opacity=".18"/><stop offset=".6" stop-color="#6998cf" stop-opacity=".08"/><stop offset=".72" stop-color="#6998cf" stop-opacity=".02"/><stop offset=".83" stop-color="#6998cf" stop-opacity="0"/></linearGradient><linearGradient id="Ac" x1="36.83" y1="44.37" x2="36.83" y2="58.03" xlink:href="#Aa"/><linearGradient id="Ad" x1="550.48" y1="-88.26" x2="550.93" y2="-70.67" gradientTransform="matrix(1.81, 0.03, -0.01, 1.3, -949.95, 137.35)" xlink:href="#Ab"/><linearGradient id="Ae" x1="43.317" y1="40.74" x2="43.317" y2="57.29" xlink:href="#Ak"><stop offset=".09" stop-color="#a6c2e1"/><stop offset=".4" stop-color="#a6c2e1" stop-opacity="0"/></linearGradient><linearGradient id="Af" x1="43.244" y1="36.87" x2="43.244" y2="40.74" xlink:href="#v"/><linearGradient id="Ag" x1="49.01" y1="42.12" x2="49.01" y2="46.25" xlink:href="#AN"/><linearGradient id="Ah" x1="65.377" y1="46.43" x2="68.795" y2="46.43" xlink:href="#D"/><linearGradient id="Ai" x1="67.3" y1="49.43" x2="68.094" y2="49.43" xlink:href="#AC"/><linearGradient id="Aj" x1="62.798" y1="47.38" x2="62.798" y2="62" xlink:href="#Ak"><stop offset="0" stop-color="#88aeda"/><stop offset=".01" stop-color="#88aeda" stop-opacity=".99"/><stop offset=".33" stop-color="#95b7de" stop-opacity=".57"/><stop offset=".59" stop-color="#9fbde1" stop-opacity=".26"/><stop offset=".78" stop-color="#a5c1e2" stop-opacity=".07"/><stop offset=".87" stop-color="#a7c3e3" stop-opacity="0"/></linearGradient><linearGradient id="Ak" gradientUnits="userSpaceOnUse"/></defs><path d="M104 57.76c-.77-5 1.64-13.42-3.33-22.73-6.54-12.26-8.61-5.48-21.11-20.69S54.32-2.06 42.71 2C34.3 5 35.41 8.5 26 9.8S8.7 17.54 4.68 33.37A176.26 176.26 0 0 0 0 57.42h1z" fill="#deebf9"/><path d="M0,57.42s16.28,8.94,28.59,16.84,37,19.53,59.64-.55c11.15-9.9,15.76-16,15.76-16Z" fill="url(#A)"/><path d="M104 57.74c-.64-4.41.78-8.07-.83-16a24.26 24.26 0 0 0-2.49-6.7h0l-.18-.33-.06-.11c0-.08-.09-.16-.13-.25v-.09l-.18-.32v-.05l-.15-.26v-.09c0-.08-.1-.16-.14-.24v-.07l-.18-.29v-.06c0-.07-.09-.15-.14-.23v-.07c-.05-.08-.1-.16-.14-.24h0c-.06-.09-.11-.18-.17-.26v-.06l-.13-.2v-.07l-.17-.24h0l-.17-.25v-.05L98.2 31v-.05l-.33-.44h0l-.14-.18h0l-.25-.33h0l-.16-.18h0l-.14-.17h0L97 29.4h0l-.15-.16h0l-.32-.34h0l-.14-.15h0l-.39-.38h0l-.16-.14h0l-.33-.28h0l-.49-.4h0a188.78 188.78 0 0 0-8.79 4 67 67 0 0 1-32.12 7.19C40.8 38.51 28.43 46 20.28 51.4A23.43 23.43 0 0 1 3.72 55 39.1 39.1 0 0 0 0 57.42h1z" opacity=".8" fill="url(#B)"/><path d="M1.29 55.11l.05-.11zm-.15.18l.05-.06zm-.82 2.1h0zm-.05.06h0zm.12-.12h0zm-.18.18h0zm.41-.43h0zm-.08.09h0zm-.08.08h0zm-.29.17zm-.04 0h0zm.67-.54h0zm-.34-.76h0zM.59 56h0zm.13-.19v-.05zm-.38.45h0zm.52-.62h0zm-.75.89h0zM1 55.47v-.06zm-.1 1.3h0zM.7 57h0zm-.48-.6h0zm-.22.26h0z" opacity=".28" fill="#9ebce0"/><path d="M28.31 24.05h5.87v6.44h-5.87z" fill="url(#C)"/><path d="M58.62 20.53h1.94v2.91h-1.94z" fill="url(#D)"/><path d="M60.56 19.7h4.86v3.73h-4.86z" fill="url(#E)"/><path d="M66.21 8.14h-1.88A15.75 15.75 0 0 0 58.89 17a3.33 3.33 0 0 0-.07.54v.74h6.08l.23-.28 6.4.13.17.34H74c-.14.15-.73-6.36-5.82-10.28z" fill="url(#F)"/><ellipse cx="62.87" cy="21.87" rx="1.01" ry="1.34" fill="url(#G)"/><path d="M63.56 20.89a.87.87 0 0 0-.69-.36 1 1 0 0 0-.91.74l1 1.11c.21.17.63-1.05.63-1.05z" opacity=".7" fill="url(#H)"/><path d="M58.32 23.21h16.19v6.61H58.32z" fill="url(#I)"/><ellipse cx="63.2" cy="21.79" rx=".48" ry=".71" fill="url(#J)"/><path d="M59.17 23.44l-1.78 1.77h2.35v-.89s-.02-.88-.57-.88z" class="BA"/><g fill="#fdb5b5"><path d="M64.45,8.42a14.33,14.33,0,0,0-4.06,8.79h-.2v1h.48v-.65h.14v-.37h-.12a18.12,18.12,0,0,1,4.14-8.79Z"/><path d="M68.62,8.42l-.42-.28H64.33L64,8.42Z"/></g><path d="M46.48 20.93h12.14v2.05H46.48z" class="BA"/><path d="M57.39 25.21h2.36v3.87h-2.36z" fill="url(#K)"/><path d="M38.34 9.28h-.14l-.03.48-2.44.62 5.26-.05-2.46-.56-.03-.49h-.16z" fill="url(#L)"/><path d="M38.27 9.3l-.01-3.74h.09l.07 3.74h-.15z" fill="url(#M)"/><path d="M31.15,19.08a6.62,6.62,0,0,0-2.74,5l7.5.06s-.44-3.65-2.72-5.05Z" fill="url(#N)"/><path d="M35.96 11.74h2.77v18.5h-2.77z" fill="url(#O)"/><path d="M32.72 18.75v-.19l-.4-.17-.06-.19-.09-1.1c0-.04-.1 1.1-.1 1.1v.19l-.4.17v.19l-.47.09v.24h2v-.27z" fill="url(#P)"/><path d="M32.72 18.75v-.19l-.4-.17-.06-.19-.09-1.1h0v1.27l.35.25v.17l.09.05v.19h.58v-.27z" fill="url(#Q)"/><path d="M31.81 19.08h-.66a7 7 0 0 0-2.74 5h2.16a11.32 11.32 0 0 1 1.24-5z" fill="#fdb5b5"/><path d="M33.68 24.11h2.23s-.44-3.65-2.72-5.05h-.58a12.74 12.74 0 0 1 1.07 5z" class="BA"/><path d="M32.61 18.89l-.09-.05-1.37.01v.23h1.46v-.19z" fill="url(#R)"/><path d="M35.68 10.34h2.99v.41h-2.99z" fill="#bdd8f2"/><path d="M35.76 10.75h2.91a0 0 0 0 1 0 0v1a0 0 0 0 1 0 0h-2.61a.3.3 0 0 1-.3-.3v-.71a0 0 0 0 1 0 .01z" fill="url(#S)"/><path transform="matrix(-1 0 0 -1 79.71 21.09)" d="M38.66 10.34h2.38v.41h-2.38z" fill="url(#T)"/><path d="M39 10.75h2 0v1h0-2.34 0v-.71a.3.3 0 0 1 .34-.29z" transform="matrix(-1 0 0 -1 79.64 22.52)" fill="url(#U)"/><path d="M36.89,17.88V17.5a.13.13,0,0,1,.1-.17V14.22s.37-.86.92-.65a.89.89,0,0,0-.5-.52,1.07,1.07,0,0,0-.6.67v4.16Z" fill="url(#V)"/><path d="M38.73 11.74h2.07v18.5h-2.07z" fill="url(#W)"/><path d="M39.82 13.05a1 1 0 0 0-.36.73v3.12h.75v-3.1s-.02-.56-.39-.75z" opacity=".41" class="BC"/><path d="M33.5 21.89h2.27v.62H33.5z" fill="url(#X)"/><path d="M73.8 18.53l.24 1.16.19.02-.04 3.5.72 1.24v.37l-.56-1.38h-.24-3.22v-5.58l.59.19.18.11 2.14.37z" fill="url(#Y)"/><path d="M33.26 21.86v.49h.08v.57l.16.05v3.08l.61-.01v-4.18h-.85z" fill="url(#Z)"/><path d="M34.11 21.87h1.14V26h-1.14z" fill="url(#a)"/><path d="M46.48 22.98h12.14v.46H46.48z" class="BB"/><path d="M58.52 24.08H46.48v-.64h12.68l-.64.64z" fill="url(#b)"/><g fill="none" stroke="#fff" stroke-width=".03"><ellipse cx="47.68" cy="25.34" rx=".6" ry=".81"/><ellipse cx="47.71" cy="25.34" rx=".45" ry=".66"/><ellipse cx="52.21" cy="25.34" rx=".6" ry=".81"/><ellipse cx="52.25" cy="25.34" rx=".45" ry=".66"/><ellipse cx="56.68" cy="25.34" rx=".6" ry=".81"/><ellipse cx="56.72" cy="25.34" rx=".45" ry=".66"/></g><path d="M57.39 29.09H46.48v-5.01h12.04l-1.13 1.13v3.88z" fill="url(#c)"/><path d="M43.38 21.46h2.08v8.78h-2.08z" fill="url(#d)"/><path d="M45.46 21.46h1.01v8.78h-1.01z" fill="url(#e)"/><path d="M45.08 19.72v.4h-.3v-.4h-.38v.4h-.28v-.4h-.36v.4h-.28v-.4h-.36v.4.79h.36.28.36.28.38.3.38v-.79-.4h-.38z" class="BB"/><path d="M46.62,20.12v-.4h-.28v.4h-.08a.09.09,0,0,1-.08-.1v-.3H45.9v.4h-.16v-.4h-.28V20.9h1.19v-.78Z" fill="url(#f)"/><path d="M43.12 20.91v.38h.08l.18.17h1.96l.12-.26v-.29h-2.34z" fill="url(#g)"/><path d="M46.65 20.91v.21l-.17.34h-1.14l.12-.26v-.29h1.19z" opacity=".59" class="BC"/><path d="M44.26 21.75h.21a.25.25 0 0 1 .25.25v3.58a0 0 0 0 1 0 0H44a0 0 0 0 1 0 0V22a.25.25 0 0 1 .26-.25z" fill="url(#h)"/><path d="M62.12 26.69h2.45v3.38h-2.45z" fill="url(#i)"/><path d="M76.58 26.77v.46h-4.94v-.46" fill="url(#j)"/><path d="M33.5 25.93h2.41v4.32H33.5z" fill="url(#k)"/><path d="M68.13 7.68h-.19v-.79l-.54-.37V5.14l.22-.31h-.23v-1h-.11l-.1.18-.59-2.13a.72.72 0 0 0 .14-.39.73.73 0 0 0-.23-.52V.54.47c0 .01-.07 0-.06.07v.4a.67.67 0 0 0-.27.52.75.75 0 0 0 .16.39L65.57 4l-.11-.18h-.13v1h-.26l.25.31v1.38l-.6.37v.79h-.22v.46L66.41 8l1.72.11z" fill="url(#l)"/><path d="M66.3 5.14V8h.11l1.72.11v-.43h-.19v-.79l-.54-.37V5.14l.22-.31h-.23v-1h-.11l-.1.18-.59-2.13a.72.72 0 0 0 .14-.39.73.73 0 0 0-.23-.52V.54.47 1s.13.31 0 .45-.34 0-.34 0a.75.75 0 0 0 .16.39h.14l.38 2.24s-.27-.06-.32.3h-1v.39h-.15 0-.26l.25.31z" fill="url(#m)"/><path d="M65.7 6.54l-.51.39v.15h.06l-.01.62h-.17v.41l.7-.04-.07-1.53z" fill="url(#n)"/><path d="M58.62 19.75h1.94v3.69h-1.94z" fill="url(#o)"/><path d="M65.79,8.54l-.53,9.19.07.2h5.56s-.33-5.19-1.28-6.21a22.39,22.39,0,0,1-2.19-3.29Z" class="BA"/><path d="M67.49 8.48a12.65 12.65 0 0 1 2.15 3.89l1.78 5.09v.69h2.56a11.53 11.53 0 0 0-.52-2.83 14.79 14.79 0 0 0-3.59-5.75c-2-1.87-1.17-1.24-2.42-1" opacity=".37" fill="url(#p)"/><path d="M67.62 8.54h.51a13.26 13.26 0 0 1 4.16 4.68A14.88 14.88 0 0 1 73.75 18H74s.1-2.86-2.52-6.57a12.53 12.53 0 0 0-3-3.07l-.89-.05z" fill="url(#q)"/><path d="M65.69 8.23a83.11 83.11 0 0 0-.53 8.77h-.1v.95h.65v-.93h-.1l.58-8.55h1.18s2.66 2.81 3.4 8.48v1h.65v-.47-.08-.4h-.16c.21.21-.71-6.25-3.65-8.79z" fill="url(#r)"/><ellipse cx="72.72" cy="21.75" rx=".53" ry="1.23" fill="#5d83b7"/><path d="M72.34 21a.09.09 0 0 0-.06 0 2.73 2.73 0 0 0 0 1.39h.06c.12 0 .22-.32.22-.72s-.1-.67-.22-.67z" class="BC"/><ellipse cx="59.63" cy="21.88" rx=".29" ry="1.22" fill="url(#s)"/><path d="M48.39 20.93l-.74 2.05.57 1.21.02 5.08-1.67-.18-.09-8.16h1.91z" fill="#5d83b7" opacity=".63"/><path d="M70.9 17.9v1.79h3.18V17.9z" fill="url(#t)"/><path d="M35.2 21.87h.7v8.36h-.7z" fill="url(#u)"/><path d="M73,23.44a4.25,4.25,0,0,0-1.36,3.33h4.94a4.37,4.37,0,0,0-2.47-3.33Z" class="BA"/><path d="M74.11 23.44a6 6 0 0 1 1.44 3.33h1a3.87 3.87 0 0 0-2.44-3.33z" fill="#fa6b6b"/><path d="M71.64 26.77h1.71a14.54 14.54 0 0 0-.07-3.33H73a4.25 4.25 0 0 0-1.36 3.33z" fill="url(#v)"/><path d="M70.54 29.82h-4.06v-4.61l4.09-.01-.03 4.62z" fill="#88aeda" opacity=".69"/><path d="M68.33 23.44l-1.85 1.77 4.09-.01-1.97-1.76h-.27z" class="BA"/><path d="M71.68 26.72h4.87v5.25h-4.87z" class="BB"/><path d="M71.52 26.69h1.84v5.3h-1.84z" fill="url(#w)"/><path d="M34.45 14.9v.4l-.34 6.55-.61.04.15-2.01h.12l.63-4.59v-.39h.05z" fill="url(#x)"/><path d="M34.61 14.9h-.21v.39l-.63 4.59h-.12l-.15 2.01h2.27l-.22-2.01-.11-.01-.81-4.59-.02-.38z" fill="url(#y)"/><path d="M35.3 21.89h.47l-.22-2.01-.11-.01-.81-4.59-.02-.38h-.09l.06.71.72 6.28z" fill="url(#z)"/><path d="M65.42 17.9h5.47v5.3h-5.47z" fill="url(#AA)"/><ellipse cx="68.33" cy="21.87" rx="1.17" ry="1.34" opacity=".7" fill="url(#AB)"/><ellipse cx="68.22" cy="21.75" rx=".65" ry=".75" fill="url(#AC)"/><path d="M58.77 19.59h-.15v.11h6.8v-.83l.01-.99-6.67-.03.01 1.74z" class="BB"/><rect x="22.87" y="29.02" width="58.51" height="40.2" rx="2.17" fill="url(#AD)"/><path d="M26.53 31.17H77.5v35.37H26.53z" fill="url(#AE)"/><path d="M89.71 48.87l5.18 8.05c.89 1.26.25 3.7-.79 6.86s-2.59 7.51-2.54 11.63-1.85-26.54-1.85-26.54z" fill="url(#AF)"/><path d="M92.28 78.89c-2-5.1.7-13.41.85-15.31s1.44-5.2.94-6.75-5.47-10.4-6.92-11.47-5.72-6.22-5.72-6.22v6.19c-3.13-.53-3.28 5.57-2.53 8.19s1.69 3.79.74 8.12-1.39 7.26-1.39 7.26h-3s-.15.58.89 5.69a15 15 0 0 0 4.88 8.74 7.65 7.65 0 0 1 1.82 4.57h13.42s-1.99-3.9-3.98-9.01zm-7.64-22.35s-1-6-1-8.12a24.25 24.25 0 0 0 2.61 5z" fill="url(#AG)"/><path d="M79.39 81.07a28.12 28.12 0 0 1-1.29-6.72 23.57 23.57 0 0 1-.1-2.66 10.42 10.42 0 0 0 .11-2.79h-2.85s-.15.58.9 5.69a14.35 14.35 0 0 0 3.55 7.37l-.32-.89z" fill="url(#AH)"/><path d="M92.28 78.89c-2-5.1.7-13.41.85-15.31s1.44-5.2.94-6.75-5.47-10.4-6.92-11.47-5.72-6.22-5.72-6.22v6.1h.08-.13 0-.08c.31 1.19 2-1.55 1.74 3.94a.93.93 0 0 1-.9.88 12.08 12.08 0 0 1-1.68 0s-.14 1.07 1.29 2.63c.83.89.86 2.45 1.25 4.66.28 1.63 1 4.18 1 4.18-1.23 2.14-2.89.11-3.12 1a7.44 7.44 0 0 0 .43 3.47c.58 2.34.8 5 2.61 6.82 1.5 1.49 4.18 5.42 5.8 6.74 2.72 2.25 3.16 5.23 4.28 8.44h2s-1.73-4-3.72-9.11zm-8.44-27.51s-.2-1.89-.2-3a24.49 24.49 0 0 0 2.61 5v4.24c.11.33-.4-.59-.35-.24l.3 2.28a12.09 12.09 0 0 1-1.59-3.15c-.38-1.74-.77-5.13-.77-5.13z" fill="url(#AI)"/><path d="M81.43,45.33h0Z" fill="url(#AJ)"/><path d="M79.93 45.66s-.27.09-.29 1.57a10.11 10.11 0 0 0 .16 2 .76.76 0 0 0 .76.63h1.72a.76.76 0 0 0 .77-.75 15.27 15.27 0 0 0-.23-3.21c-.3-.9-2.36-.79-2.89-.24z" fill="url(#AK)"/><path d="M89.72 55.32c-1.58 0-3.42.25-3.14-1.65.18-1.2.7-1.05 1.47-1.77-2-.53-2.19-3.4-2.85-5a4.9 4.9 0 0 0-1.64-2.41 9.17 9.17 0 0 1-1.85-1.55 3.74 3.74 0 0 0-.27-.31v2.62c.15 0 2-.29 2.19 3.21a24.49 24.49 0 0 0 2.61 5l-1.61 3.13c.11.32 1.31 3.38 2.69 4.27a5.54 5.54 0 0 1-.13-3.35 3.42 3.42 0 0 1 2.53-2.19z" fill="url(#AL)"/><ellipse cx="25.27" cy="49.12" rx=".43" ry=".42" opacity=".8" fill="url(#AM)"/><path d="M29.56 24.67h0a.52.52 0 0 1 .52.52v2.92a0 0 0 0 1 0 0H29a0 0 0 0 1 0 0v-2.92a.52.52 0 0 1 .56-.52z" fill="url(#AN)"/><g opacity=".43"><path d="M28.35 31.12h12.79v10.2H28.35z" fill="url(#AO)"/><path d="M39.13 31.13h2.01v10.44h-2.01z" fill="url(#AP)"/><path d="M33.79 31.14H36v8.63h-2.21z" fill="url(#AQ)"/><path d="M43.5 31.14h14.9v6.8H43.5z" fill="url(#AR)"/><path d="M45.6 43.74l-2.14.06V31.18l2.14-.06v12.62z" fill="url(#AS)"/><path d="M76.58 31.12H65.46l-.16 12.73 11.23-.01.05-12.72z" fill="url(#AT)"/><path d="M60.51 31.12h4.79v11.01h-4.79z" fill="url(#AU)"/><path d="M58.6 31.12h1.91v10.9H58.6z" fill="url(#AV)"/></g><path d="M45.57 31.16h1.05v12.79h-1.05z" opacity=".64" fill="url(#AW)"/><g fill="#9ebce0"><path d="M95.09 28h0zm.11.12h0zm.29.24h0zm-.19-.17h0zm.09.08h0zm.31.27h0zm1.01.97h0zm.1.11h0zm-1.01-1h0zm1.42 1.47h0zm-.82-.89h0zm-.4-.39zm.3.28h0zm-.4-.38h0zm.31.29h0z" opacity=".28"/><path d="M20.28 51.4C32.86 43.72 39 39.83 52.13 39.83a78.37 78.37 0 0 0 34.05-8.27c3-1.52 6.1-2.9 8.79-4h0l.23.18c-3.29-2.74-6.73-3.09-14.09-11.56-22.73 13.29-25.32 7.82-36.4 9.39S27 30.73 24.47 34.32C11.57 52.54 10.57 50 3.72 55a25.7 25.7 0 0 0 16.56-3.6zm74.99-23.64h0 0z" opacity=".39"/></g><path d="M61 38.35c7.41-.19 16.49-3.15 16.49-3.15V53l-16.66-5.57s-.07-9.07.17-9.08z" opacity=".8" fill="url(#AX)"/><path d="M26.56 47.43s9.26-6.12 16.3-6.67l-.18 19.82-16.12-1.11z" opacity=".8" fill="url(#AY)"/><path d="M60.85 56.72h-8.4V36.44l8.47-.03-.07 20.31z" fill="url(#AZ)"/><path d="M56.29 34l-3.84 2.44 8.47-.03L56.84 34h-.55z" class="BA"/><path d="M52.45 36.42h2.43V55.2h-2.43z" opacity=".62" fill="url(#Aa)"/><path d="M42.81 59.13h-6.99V44.39l7.04-.02-.05 14.76z" fill="url(#Ab)"/><path d="M39.02 42.62l-3.2 1.77 7.04-.02-3.39-1.75h-.45z" class="BA"/><path d="M35.82 44.37h2.02v13.65h-2.02z" opacity=".62" fill="url(#Ac)"/><path d="M51.94 63.55h-9.26l.13-22.8 9.13.01v22.79z" fill="url(#Ad)"/><path d="M46.34 57.29h-3.67l.14-16.55h3.53v16.55z" fill="url(#Ae)"/><path d="M45.3,36.87a4.65,4.65,0,0,0-2.49,3.87h9c0,.2-.08-2.46-4.52-3.87Z" class="BA"/><path d="M47.34 36.87A6.54 6.54 0 0 1 50 40.74h1.88s-.09-2.74-4.54-3.87z" fill="#fa6b6b"/><path d="M42.81 40.74h3.13a11.08 11.08 0 0 0-.11-3.87h-.53a4.65 4.65 0 0 0-2.49 3.87z" fill="url(#Af)"/><path d="M48.93 42.12h.18a.42.42 0 0 1 .42.42v3.72a0 0 0 0 1 0 0h-1a0 0 0 0 1 0 0v-3.73a.42.42 0 0 1 .4-.41z" fill="url(#Ag)"/><path transform="matrix(-1 0 0 -1 135.4 92.86)" d="M65.99 45.44h3.43v1.98h-3.43z" fill="url(#Ah)"/><path d="M67.9 48.73h.8 0v1a.41.41 0 0 1-.41.41h-.21a.18.18 0 0 1-.18-.18v-1.23h0z" transform="matrix(-1 0 0 -1 136.61 98.86)" fill="url(#Ai)"/><path d="M54.85 61.64l14.63.36V47.39l-14.57-.01-.06 14.26z" fill="url(#Aj)"/><path d="M66.82 43.18l2.59 2.26H66v-1.13s0-1.13.82-1.13z" class="BA"/></svg>